<svg width="211" height="295" viewBox="0 0 211 295" fill="none" xmlns="http://www.w3.org/2000/svg">
<g clip-path="url(#clip0_41_12)">
<path d="M316 127.125V146.875C315.827 147.671 315.549 148.455 315.488 149.257C313.402 176.457 304.977 201.558 289.708 224.135C264.533 261.357 229.779 284.292 185.514 292.55C179.682 293.636 173.757 294.198 167.875 295H148.125C147.335 294.827 146.557 294.556 145.755 294.488C114.285 291.982 85.9495 281.194 61.1386 261.69C29.2115 236.596 9.50469 203.983 2.36383 163.922C1.35781 158.281 0.777656 152.559 0 146.875C0 140.29 0 133.71 0 127.125C0.456719 123.366 0.845547 119.601 1.37633 115.849C5.91266 83.6071 18.9045 55.2165 40.8084 31.1338C65.1873 4.3232 95.2876 -12.4149 131.084 -18.6177C136.732 -19.5928 142.447 -20.2162 148.125 -21C154.71 -21 161.29 -21 167.875 -21C168.665 -20.8272 169.449 -20.5556 170.251 -20.4939C193.988 -18.7102 216.293 -12.0755 236.741 0.0831242C278.765 25.073 304.526 61.6291 313.574 109.77C314.655 115.503 315.204 121.336 316 127.125ZM141.564 98.8578C141.564 103.801 141.607 108.313 141.552 112.825C141.49 117.855 142.521 117.509 136.855 117.855C123.808 118.645 110.785 119.904 98.1945 123.514C92.646 125.107 87.1963 127.483 82.1662 130.322C77.9755 132.68 78.1112 136.747 82.0736 139.555C84.7213 141.431 87.6715 143.289 90.7574 144.054C100.706 146.505 110.73 148.733 120.821 150.479C127.554 151.646 134.46 151.856 141.62 152.522V213.76H174.479V152.399C177.256 152.189 179.725 152.158 182.138 151.8C194.321 149.998 206.573 148.529 218.62 146.06C224.002 144.956 229.217 142.221 234.019 139.401C238.012 137.056 237.827 133.069 234.013 130.334C231.464 128.501 228.557 127.026 225.613 125.903C215.361 121.996 204.579 120.367 193.748 119.132C187.44 118.41 181.095 117.978 174.627 117.404V98.8084H216.528V69.634H99.2438V98.8578H141.564Z" fill="#D4F100"/>
<path d="M141.515 120.521V141.999H174.337V120.83C180.237 121.299 185.78 121.41 191.211 122.243C200.327 123.632 209.406 125.329 218.423 127.236C221.046 127.791 223.595 129.242 225.872 130.754C228.575 132.544 228.656 135.08 225.847 136.673C222.416 138.617 218.67 140.246 214.861 141.258C201.191 144.9 187.144 145.955 173.066 146.529C150.736 147.437 128.468 146.844 106.465 142.474C101.577 141.505 96.7873 139.79 92.1523 137.932C90.5229 137.278 88.4677 135.148 88.4677 133.698C88.4677 132.248 90.5476 130.013 92.1584 129.483C98.7562 127.316 105.428 125.119 112.248 123.965C121.734 122.354 131.375 121.669 141.515 120.527V120.521Z" fill="#D4F100"/>
</g>
<defs>
<clipPath id="clip0_41_12">
<rect width="316" height="316" fill="white" transform="translate(0 -21)"/>
</clipPath>
</defs>
</svg>
