<svg width="123" height="42" viewBox="0 0 123 42" fill="none" xmlns="http://www.w3.org/2000/svg">
<rect x="0.5" y="0.5" width="122" height="41" rx="20.5" stroke="white"/>
<mask id="mask0_68_349" style="mask-type:alpha" maskUnits="userSpaceOnUse" x="12" y="9" width="24" height="24">
<rect x="12" y="9" width="24" height="24" fill="#D9D9D9"/>
</mask>
<g mask="url(#mask0_68_349)">
<path d="M12.7968 27.1133C12.9499 25.2973 13.5075 23.6256 14.4695 22.0981C15.4315 20.5706 16.7078 19.3572 18.2983 18.4581L16.4125 15.2041C16.3125 15.0501 16.2885 14.8888 16.3405 14.7203C16.3925 14.5516 16.5018 14.4236 16.6685 14.3363C16.8098 14.249 16.9646 14.2311 17.1328 14.2826C17.3009 14.3342 17.4355 14.4375 17.5365 14.5923L19.4163 17.8521C20.8736 17.2401 22.4015 16.9341 24 16.9341C25.5985 16.9341 27.1264 17.2401 28.5838 17.8521L30.4613 14.5906C30.5628 14.4377 30.6978 14.3353 30.8665 14.2833C31.0352 14.2313 31.1902 14.249 31.3315 14.3363C31.4982 14.4236 31.6075 14.5516 31.6595 14.7203C31.7115 14.8888 31.6875 15.0501 31.5875 15.2041L29.7018 18.4581C31.2923 19.3572 32.5685 20.5706 33.5305 22.0981C34.4925 23.6256 35.0501 25.2973 35.2033 27.1133H12.7968ZM18.9118 24.3156C19.2688 24.3156 19.5691 24.1923 19.8128 23.9458C20.0564 23.6991 20.1783 23.3973 20.1783 23.0403C20.1783 22.6833 20.0564 22.382 19.8128 22.1363C19.5691 21.8906 19.2688 21.7678 18.9118 21.7678C18.5546 21.7678 18.2528 21.8911 18.0063 22.1376C17.7598 22.3841 17.6365 22.6859 17.6365 23.0431C17.6365 23.4001 17.7598 23.7014 18.0063 23.9471C18.2528 24.1927 18.5546 24.3156 18.9118 24.3156ZM29.091 24.3156C29.4482 24.3156 29.7495 24.1923 29.995 23.9458C30.2407 23.6991 30.3635 23.3973 30.3635 23.0403C30.3635 22.6833 30.2403 22.382 29.9938 22.1363C29.7473 21.8906 29.4454 21.7678 29.0883 21.7678C28.7313 21.7678 28.4299 21.8911 28.1843 22.1376C27.9386 22.3841 27.8158 22.6859 27.8158 23.0431C27.8158 23.4001 27.939 23.7014 28.1855 23.9471C28.4322 24.1927 28.734 24.3156 29.091 24.3156Z" fill="white"/>
</g>
<path d="M44.096 26L49.408 14.336H51.888L57.216 26H55.136L53.92 23.328H47.376L46.176 26H44.096ZM47.952 21.856H53.36L51.296 17.344L50.688 15.936H50.624L50.016 17.36L47.952 21.856ZM58.2241 26V17.536H60.0321L60.0801 19.28H60.1921C60.5015 18.672 60.9655 18.208 61.5841 17.888C62.2135 17.568 62.8908 17.408 63.6161 17.408C64.1601 17.408 64.6561 17.4773 65.1041 17.616C65.5521 17.7547 65.9361 17.9787 66.2561 18.288C66.5868 18.5867 66.8428 18.992 67.0241 19.504C67.2055 20.0053 67.2961 20.624 67.2961 21.36V26H65.4401V21.68C65.4401 21.04 65.3548 20.512 65.1841 20.096C65.0135 19.6693 64.7468 19.3547 64.3841 19.152C64.0321 18.9493 63.5788 18.848 63.0241 18.848C62.4375 18.848 61.9201 18.976 61.4721 19.232C61.0348 19.4773 60.6935 19.8187 60.4481 20.256C60.2028 20.6933 60.0801 21.2107 60.0801 21.808V26H58.2241ZM72.8309 26.192C72.1909 26.192 71.6095 26.0907 71.0869 25.888C70.5642 25.6853 70.1162 25.392 69.7429 25.008C69.3695 24.6133 69.0815 24.144 68.8789 23.6C68.6762 23.056 68.5749 22.4533 68.5749 21.792C68.5749 20.896 68.7509 20.1227 69.1029 19.472C69.4549 18.8107 69.9509 18.2987 70.5909 17.936C71.2415 17.5733 71.9935 17.392 72.8469 17.392C73.3695 17.392 73.8495 17.4667 74.2869 17.616C74.7242 17.7547 75.1029 17.9627 75.4229 18.24C75.7535 18.5067 76.0095 18.8267 76.1909 19.2H76.2709V14.336H78.1269V26H76.3509L76.3029 24.384H76.2229C75.9669 24.9173 75.5509 25.3547 74.9749 25.696C74.3989 26.0267 73.6842 26.192 72.8309 26.192ZM73.3429 24.752C73.9402 24.752 74.4575 24.64 74.8949 24.416C75.3322 24.192 75.6682 23.8773 75.9029 23.472C76.1482 23.0667 76.2709 22.6027 76.2709 22.08V21.504C76.2709 21.1093 76.2015 20.752 76.0629 20.432C75.9242 20.1013 75.7269 19.8187 75.4709 19.584C75.2255 19.3493 74.9215 19.168 74.5589 19.04C74.2069 18.912 73.8015 18.848 73.3429 18.848C72.7349 18.848 72.2122 18.9653 71.7749 19.2C71.3482 19.4347 71.0175 19.7707 70.7829 20.208C70.5589 20.6453 70.4469 21.1733 70.4469 21.792C70.4469 22.3893 70.5589 22.912 70.7829 23.36C71.0175 23.808 71.3482 24.1547 71.7749 24.4C72.2122 24.6347 72.7349 24.752 73.3429 24.752ZM79.9116 26V17.536H81.5916L81.6716 19.024H81.7356C81.917 18.5333 82.221 18.144 82.6476 17.856C83.085 17.568 83.597 17.424 84.1836 17.424C84.3436 17.424 84.4876 17.4293 84.6156 17.44C84.7543 17.4507 84.8663 17.4667 84.9516 17.488V19.184C84.8343 19.152 84.7063 19.1307 84.5676 19.12C84.429 19.0987 84.2903 19.088 84.1516 19.088C83.7036 19.088 83.3036 19.1733 82.9516 19.344C82.5996 19.5147 82.317 19.7707 82.1036 20.112C81.901 20.4533 81.7836 20.8853 81.7516 21.408V26H79.9116ZM90.2216 26.16C89.4856 26.16 88.8136 26.0587 88.2056 25.856C87.5976 25.6533 87.075 25.3653 86.6376 24.992C86.211 24.608 85.8803 24.1493 85.6456 23.616C85.411 23.072 85.2936 22.464 85.2936 21.792C85.2936 20.8853 85.4963 20.1067 85.9016 19.456C86.3176 18.7947 86.8936 18.288 87.6296 17.936C88.3656 17.584 89.2296 17.408 90.2216 17.408C90.9576 17.408 91.6243 17.5093 92.2216 17.712C92.8296 17.904 93.3523 18.192 93.7896 18.576C94.227 18.96 94.563 19.424 94.7976 19.968C95.0323 20.5013 95.1496 21.1093 95.1496 21.792C95.1496 22.6773 94.9416 23.4507 94.5256 24.112C94.1203 24.7627 93.5496 25.2693 92.8136 25.632C92.0776 25.984 91.2136 26.16 90.2216 26.16ZM90.2216 24.688C90.851 24.688 91.395 24.5707 91.8536 24.336C92.3123 24.1013 92.6643 23.7653 92.9096 23.328C93.1656 22.8907 93.2936 22.3787 93.2936 21.792C93.2936 21.344 93.219 20.9387 93.0696 20.576C92.931 20.2133 92.7283 19.904 92.4616 19.648C92.2056 19.392 91.8856 19.2 91.5016 19.072C91.1176 18.9333 90.691 18.864 90.2216 18.864C89.5923 18.864 89.0483 18.9813 88.5896 19.216C88.131 19.4507 87.7736 19.792 87.5176 20.24C87.2723 20.6773 87.1496 21.1947 87.1496 21.792C87.1496 22.2293 87.219 22.6293 87.3576 22.992C87.507 23.344 87.7096 23.648 87.9656 23.904C88.2323 24.16 88.5523 24.3573 88.9256 24.496C89.3096 24.624 89.7416 24.688 90.2216 24.688ZM96.5523 26V17.536H98.4083V26H96.5523ZM96.5523 16.256V14.336H98.4083V16.256H96.5523ZM104.081 26.192C103.441 26.192 102.86 26.0907 102.337 25.888C101.814 25.6853 101.366 25.392 100.993 25.008C100.62 24.6133 100.332 24.144 100.129 23.6C99.9262 23.056 99.8249 22.4533 99.8249 21.792C99.8249 20.896 100.001 20.1227 100.353 19.472C100.705 18.8107 101.201 18.2987 101.841 17.936C102.492 17.5733 103.244 17.392 104.097 17.392C104.62 17.392 105.1 17.4667 105.537 17.616C105.974 17.7547 106.353 17.9627 106.673 18.24C107.004 18.5067 107.26 18.8267 107.441 19.2H107.521V14.336H109.377V26H107.601L107.553 24.384H107.473C107.217 24.9173 106.801 25.3547 106.225 25.696C105.649 26.0267 104.934 26.192 104.081 26.192ZM104.593 24.752C105.19 24.752 105.708 24.64 106.145 24.416C106.582 24.192 106.918 23.8773 107.153 23.472C107.398 23.0667 107.521 22.6027 107.521 22.08V21.504C107.521 21.1093 107.452 20.752 107.313 20.432C107.174 20.1013 106.977 19.8187 106.721 19.584C106.476 19.3493 106.172 19.168 105.809 19.04C105.457 18.912 105.052 18.848 104.593 18.848C103.985 18.848 103.462 18.9653 103.025 19.2C102.598 19.4347 102.268 19.7707 102.033 20.208C101.809 20.6453 101.697 21.1733 101.697 21.792C101.697 22.3893 101.809 22.912 102.033 23.36C102.268 23.808 102.598 24.1547 103.025 24.4C103.462 24.6347 103.985 24.752 104.593 24.752Z" fill="white"/>
</svg>
