<svg width="1440" height="812" viewBox="0 0 1440 812" fill="none" xmlns="http://www.w3.org/2000/svg">
<g clip-path="url(#clip0_2_41)">
<mask id="mask0_2_41" style="mask-type:luminance" maskUnits="userSpaceOnUse" x="0" y="0" width="1440" height="812">
<path d="M1440 0H0V812H1440V0Z" fill="white"/>
</mask>
<g mask="url(#mask0_2_41)">
<path d="M44.6184 -9.25731L-32.5737 68.0045L-30.4225 70.1576L46.7696 -7.10419L44.6184 -9.25731Z" fill="url(#paint0_linear_2_41)"/>
<path d="M795.036 -9.25224L717.844 68.0096L719.995 70.1627L797.187 -7.09912L795.036 -9.25224Z" fill="url(#paint1_linear_2_41)"/>
<path d="M1320.33 -9.2488L1318.18 -7.09568L1395.37 70.1661L1397.52 68.013L1320.33 -9.2488Z" fill="url(#paint2_linear_2_41)"/>
<path d="M117.511 68.005L119.662 70.1578L192.553 143.115L117.511 218.225L119.662 220.378L194.704 145.268L196.855 143.115L194.704 140.962L121.813 68.005L194.704 -4.95219L267.596 68.005L269.746 70.1578L271.897 68.005L346.94 -7.105L344.789 -9.25782L269.746 65.8522L196.855 -7.105L194.704 -9.25782L192.553 -7.105L119.662 65.8522L117.511 68.005Z" fill="url(#paint3_linear_2_41)"/>
<path d="M644.958 70.1578L717.849 143.115L720 145.268L792.891 218.225L720 291.182L717.849 293.335L644.958 366.292L642.807 368.445L644.958 370.598L717.849 443.555L720 445.708L722.151 443.555L795.042 370.598L867.934 443.555L870.085 445.708L945.127 520.818L947.278 518.665L872.235 443.555L870.085 441.402L797.193 368.445L870.085 295.488L872.235 293.335L945.127 220.378L1018.02 293.335L1020.17 295.488L1022.32 293.335L1097.36 218.225L1095.21 216.072L1020.17 291.182L947.278 218.225L1020.17 145.268L1022.32 143.115L1095.21 70.1578L1097.36 68.005L1170.25 -4.95219L1245.3 70.1578L1247.45 68.005L1172.4 -7.105L1170.25 -9.25782L1168.1 -7.105L1095.21 65.8522L1020.17 -9.25782L1018.02 -7.105L1093.06 68.005L1020.17 140.962L945.127 65.8522L942.976 68.005L1018.02 143.115L945.127 216.072L942.976 218.225L870.085 291.182L797.193 218.225L870.085 145.268L872.235 143.115L870.085 140.962L797.193 68.005L872.235 -7.105L870.085 -9.25782L795.042 65.8522L792.891 68.005L720 140.962L647.109 68.005L722.151 -7.105L720 -9.25782L644.958 65.8522L569.915 -9.25782L567.765 -7.105L642.807 68.005L644.958 70.1578ZM867.934 293.335L795.042 366.292L792.891 368.445L720 441.402L647.109 368.445L720 295.488L722.151 293.335L795.042 220.378L867.934 293.335ZM795.042 70.1578L867.934 143.115L795.042 216.072L722.151 143.115L795.042 70.1578Z" fill="url(#paint4_linear_2_41)"/>
<path d="M867.934 68.005L870.084 70.1578L942.976 143.115L867.934 218.225L870.084 220.378L945.127 145.268L947.278 143.115L945.127 140.962L872.235 68.005L945.127 -4.95219L1020.17 70.1578L1022.32 68.005L947.278 -7.105L945.127 -9.25782L942.976 -7.105L870.084 65.8522L867.934 68.005Z" fill="url(#paint5_linear_2_41)"/>
<path d="M1470.42 70.1578L1472.57 68.005L1470.42 65.8522L1395.38 -9.25782L1393.23 -7.105L1468.27 68.005L1395.38 140.962L1322.49 68.005L1320.34 65.8522L1245.3 -9.25782L1243.15 -7.105L1318.19 68.005L1245.3 140.962L1172.4 68.005L1170.25 65.8522L1168.1 68.005L1095.21 140.962L1093.06 143.115L1018.02 218.225L1020.17 220.378L1095.21 145.268L1168.1 218.225L1095.21 291.182L1093.06 293.335L1020.17 366.292L947.278 293.335L945.127 291.182L942.976 293.335L870.085 366.292L867.934 368.445L870.085 370.598L942.976 443.555L945.127 445.708L1018.02 518.665L945.127 591.622L872.235 518.665L870.085 516.512L797.193 443.555L795.042 441.402L792.891 443.555L720 516.512L647.109 443.555L644.958 441.402L572.066 368.445L644.958 295.488L647.109 293.335L720 220.378L722.151 218.225L720 216.072L647.109 143.115L644.958 140.962L572.066 68.005L569.916 65.8522L494.873 -9.25782L492.722 -7.105L567.765 68.005L494.873 140.962L421.982 68.005L419.831 65.8522L417.68 68.005L344.789 140.962L342.638 143.115L344.789 145.268L417.68 218.225L344.789 291.182L342.638 293.335L344.789 295.488L417.68 368.445L344.789 441.402L342.638 443.555L269.746 516.512L267.596 518.665L192.553 593.775L194.704 595.928L269.746 520.818L271.897 518.665L344.789 445.708L346.94 443.555L419.831 370.598L421.982 368.445L419.831 366.292L346.94 293.335L419.831 220.378L492.722 293.335L494.873 295.488L567.765 368.445L569.916 370.598L642.807 443.555L569.916 516.512L567.765 518.665L569.916 520.818L642.807 593.775L569.916 666.732L494.873 591.622L492.722 593.775L567.765 668.885L569.916 671.038L642.807 743.995L569.916 816.952L497.024 743.995L494.873 741.842L419.831 666.732L417.68 668.885L492.722 743.995L417.68 819.105L419.831 821.258L494.873 746.148L567.765 819.105L569.916 821.258L572.066 819.105L644.958 746.148L647.109 743.995L720 671.038L792.891 743.995L717.849 819.105L720 821.258L795.042 746.148L867.934 819.105L870.085 821.258L872.235 819.105L945.127 746.148L947.278 743.995L1020.17 671.038L1022.32 668.885L1095.21 595.928L1168.1 668.885L1170.25 671.038L1172.4 668.885L1247.45 593.775L1245.3 591.622L1170.25 666.732L1097.36 593.775L1095.21 591.622L1093.06 593.775L1020.17 666.732L947.278 593.775L1020.17 520.818L1022.32 518.665L1020.17 516.512L947.278 443.555L945.127 441.402L872.235 368.445L945.127 295.488L1018.02 368.445L1020.17 370.598L1095.21 445.708L1097.36 443.555L1022.32 368.445L1095.21 295.488L1170.25 370.598L1172.4 368.445L1097.36 293.335L1170.25 220.378L1172.4 218.225L1170.25 216.072L1097.36 143.115L1170.25 70.1578L1243.15 143.115L1245.3 145.268L1318.19 218.225L1245.3 291.182L1243.15 293.335L1245.3 295.488L1318.19 368.445L1320.34 370.598L1393.23 443.555L1318.19 518.665L1320.34 520.818L1395.38 445.708L1470.42 520.818L1472.57 518.665L1397.53 443.555L1470.42 370.598L1472.57 368.445L1470.42 366.292L1397.53 293.335L1395.38 291.182L1393.23 293.335L1320.34 366.292L1247.45 293.335L1320.34 220.378L1322.49 218.225L1395.38 145.268L1470.42 220.378L1472.57 218.225L1397.53 143.115L1470.42 70.1578ZM717.849 218.225L644.958 291.182L572.066 218.225L644.958 145.268L717.849 218.225ZM421.982 218.225L419.831 216.072L346.94 143.115L419.831 70.1578L492.722 143.115L494.873 145.268L497.024 143.115L569.916 70.1578L642.807 143.115L569.916 216.072L567.765 218.225L494.873 291.182L421.982 218.225ZM497.024 293.335L569.916 220.378L642.807 293.335L569.916 366.292L497.024 293.335ZM942.976 593.775L870.085 666.732L797.193 593.775L870.085 520.818L942.976 593.775ZM795.042 445.708L867.934 518.665L795.042 591.622L722.151 518.665L795.042 445.708ZM792.891 593.775L720 666.732L647.109 593.775L720 520.818L792.891 593.775ZM572.066 518.665L644.958 445.708L717.849 518.665L644.958 591.622L572.066 518.665ZM644.958 741.842L572.066 668.885L644.958 595.928L717.849 668.885L644.958 741.842ZM722.151 668.885L795.042 595.928L867.934 668.885L795.042 741.842L722.151 668.885ZM1018.02 668.885L945.127 741.842L942.976 743.995L870.085 816.952L797.193 743.995L870.085 671.038L872.235 668.885L945.127 595.928L1018.02 668.885ZM1395.38 295.488L1468.27 368.445L1395.38 441.402L1322.49 368.445L1395.38 295.488ZM1320.34 216.072L1247.45 143.115L1320.34 70.1578L1393.23 143.115L1320.34 216.072Z" fill="url(#paint6_linear_2_41)"/>
<path d="M569.915 140.962L494.873 216.072L419.831 140.962L417.68 143.115L492.722 218.225L494.873 220.378L497.024 218.225L572.066 143.115L569.915 140.962Z" fill="url(#paint7_linear_2_41)"/>
<path d="M1395.38 216.072L1393.23 218.225L1318.19 293.335L1320.34 295.488L1395.38 220.378L1470.42 295.488L1472.57 293.335L1397.53 218.225L1395.38 216.072Z" fill="url(#paint8_linear_2_41)"/>
<path d="M795.034 291.186L717.842 368.448L719.993 370.601L797.185 293.339L795.034 291.186Z" fill="url(#paint9_linear_2_41)"/>
<path d="M-32.5734 518.665L-30.4225 520.818L42.4688 593.775L44.6197 595.928L46.7706 593.775L119.662 520.818L121.813 518.665L194.704 445.708L196.855 443.555L269.746 370.598L271.897 368.445L269.746 366.292L196.855 293.335L271.897 218.225L269.746 216.072L194.704 291.182L192.553 293.335L194.704 295.488L267.596 368.445L194.704 441.402L121.813 368.445L119.662 366.292L117.511 368.445L44.6197 441.402L-30.4225 366.292L-32.5734 368.445L42.4688 443.555L-30.4225 516.512L-32.5734 518.665ZM119.662 370.598L192.553 443.555L119.662 516.512L46.7706 443.555L119.662 370.598ZM44.6197 445.708L117.511 518.665L44.6197 591.622L-28.2717 518.665L44.6197 445.708Z" fill="url(#paint10_linear_2_41)"/>
<path d="M419.831 520.818L421.982 518.665L497.024 443.555L494.873 441.402L419.831 516.512L417.68 518.665L342.638 593.775L344.789 595.928L419.831 520.818Z" fill="url(#paint11_linear_2_41)"/>
<path d="M1472.57 593.775L1470.42 591.622L1397.53 518.665L1395.38 516.512L1393.23 518.665L1320.34 591.622L1247.45 518.665L1320.34 445.708L1322.49 443.555L1320.34 441.402L1247.45 368.445L1245.3 366.292L1172.4 293.335L1245.3 220.378L1247.45 218.225L1245.3 216.072L1170.25 140.962L1168.1 143.115L1243.14 218.225L1170.25 291.182L1168.1 293.335L1170.25 295.488L1243.14 368.445L1170.25 441.402L1095.21 366.292L1093.06 368.445L1168.1 443.555L1095.21 516.512L1022.32 443.555L1020.17 441.402L945.127 366.292L942.976 368.445L1018.02 443.555L1020.17 445.708L1093.06 518.665L1018.02 593.775L1020.17 595.928L1095.21 520.818L1168.1 593.775L1170.25 595.928L1172.4 593.775L1245.3 520.818L1318.19 593.775L1245.3 666.732L1243.14 668.885L1170.25 741.842L1097.36 668.885L1095.21 666.732L1093.06 668.885L1020.17 741.842L1018.02 743.995L942.976 819.105L945.127 821.258L1020.17 746.148L1022.32 743.995L1095.21 671.038L1168.1 743.995L1093.06 819.105L1095.21 821.258L1170.25 746.148L1245.3 821.258L1247.45 819.105L1172.4 743.995L1245.3 671.038L1320.34 746.148L1322.49 743.995L1247.45 668.885L1320.34 595.928L1393.23 668.885L1395.38 671.038L1468.27 743.995L1393.23 819.105L1395.38 821.258L1470.42 746.148L1472.57 743.995L1470.42 741.842L1397.53 668.885L1470.42 595.928L1472.57 593.775ZM1245.3 370.598L1318.19 443.555L1245.3 516.512L1172.4 443.555L1245.3 370.598ZM1170.25 591.622L1097.36 518.665L1170.25 445.708L1243.14 518.665L1170.25 591.622ZM1395.38 666.732L1322.49 593.775L1395.38 520.818L1468.27 593.775L1395.38 666.732Z" fill="url(#paint12_linear_2_41)"/>
<path d="M119.662 671.038L194.704 746.148L196.855 743.995L121.813 668.885L119.662 666.732L117.511 668.885L44.6197 741.842L42.4689 743.995L44.6197 746.148L119.662 821.258L121.813 819.105L46.7706 743.995L119.662 671.038Z" fill="url(#paint13_linear_2_41)"/>
<path d="M945.115 666.734L867.923 743.996L870.074 746.149L947.266 668.887L945.115 666.734Z" fill="url(#paint14_linear_2_41)"/>
<path d="M421.982 743.995L419.831 741.842L346.94 668.885L419.831 595.928L492.722 668.885L494.873 671.038L569.915 746.148L572.066 743.995L497.024 668.885L494.873 666.732L421.982 593.775L494.873 520.818L569.915 595.928L572.066 593.775L497.024 518.665L569.915 445.708L572.066 443.555L569.915 441.402L497.024 368.445L494.873 366.292L419.831 291.182L417.68 293.335L492.722 368.445L419.831 441.402L417.68 443.555L344.789 516.512L342.638 518.665L269.746 591.622L267.596 593.775L194.704 666.732L121.813 593.775L194.704 520.818L196.855 518.665L269.746 445.708L271.897 443.555L344.789 370.598L346.94 368.445L344.789 366.292L271.897 293.335L344.789 220.378L346.94 218.225L344.789 216.072L271.897 143.115L344.789 70.1578L346.94 68.005L419.831 -4.95219L494.873 70.1578L497.024 68.005L421.982 -7.105L419.831 -9.25782L417.68 -7.105L344.789 65.8522L342.638 68.005L269.746 140.962L194.704 65.8522L192.553 68.005L267.596 143.115L194.704 216.072L192.553 218.225L119.662 291.182L46.7706 218.225L119.662 145.268L121.813 143.115L119.662 140.962L46.7706 68.005L121.813 -7.105L119.662 -9.25782L44.6197 65.8522L42.4688 68.005L-30.4225 140.962L-32.5734 143.115L-30.4225 145.268L42.4688 218.225L-30.4225 291.182L-32.5734 293.335L-30.4225 295.488L42.4688 368.445L44.6197 370.598L46.7706 368.445L119.662 295.488L194.704 370.598L196.855 368.445L121.813 293.335L194.704 220.378L196.855 218.225L269.746 145.268L342.638 218.225L269.746 291.182L267.596 293.335L269.746 295.488L342.638 368.445L269.746 441.402L267.596 443.555L194.704 516.512L192.553 518.665L119.662 591.622L117.511 593.775L44.6197 666.732L-30.4225 591.622L-32.5734 593.775L42.4688 668.885L-30.4225 741.842L-32.5734 743.995L-30.4225 746.148L44.6197 821.258L46.7706 819.105L-28.2717 743.995L44.6197 671.038L46.7706 668.885L119.662 595.928L192.553 668.885L194.704 671.038L267.596 743.995L194.704 816.952L119.662 741.842L117.511 743.995L192.553 819.105L194.704 821.258L196.855 819.105L269.746 746.148L342.638 819.105L344.789 821.258L346.94 819.105L419.831 746.148L421.982 743.995ZM-28.2717 143.115L44.6197 70.1578L117.511 143.115L44.6197 216.072L-28.2717 143.115ZM44.6197 366.292L-28.2717 293.335L44.6197 220.378L117.511 293.335L44.6197 366.292ZM344.789 520.818L346.94 518.665L419.831 445.708L421.982 443.555L494.873 370.598L567.765 443.555L494.873 516.512L492.722 518.665L419.831 591.622L417.68 593.775L344.789 666.732L271.897 593.775L344.789 520.818ZM196.855 668.885L269.746 595.928L342.638 668.885L269.746 741.842L196.855 668.885ZM344.789 816.952L271.897 743.995L344.789 671.038L417.68 743.995L344.789 816.952Z" fill="url(#paint15_linear_2_41)"/>
<path d="M719.989 741.842L642.797 819.104L644.948 821.257L722.14 743.995L719.989 741.842Z" fill="url(#paint16_linear_2_41)"/>
<path d="M1095.2 741.845L1018.01 819.107L1020.16 821.26L1097.35 743.998L1095.2 741.845Z" fill="url(#paint17_linear_2_41)"/>
<path d="M1397.53 743.995L1395.38 741.842L1320.34 666.732L1318.19 668.885L1393.23 743.995L1320.34 816.952L1245.3 741.842L1243.14 743.995L1318.19 819.105L1320.34 821.258L1322.49 819.105L1395.38 746.148L1397.53 743.995Z" fill="url(#paint18_linear_2_41)"/>
</g>
</g>
<defs>
<linearGradient id="paint0_linear_2_41" x1="6.02234" y1="29.3736" x2="8.17546" y2="31.5248" gradientUnits="userSpaceOnUse">
<stop stop-color="white" stop-opacity="0.05"/>
<stop offset="1" stop-color="white" stop-opacity="0"/>
</linearGradient>
<linearGradient id="paint1_linear_2_41" x1="756.44" y1="29.3787" x2="758.593" y2="31.5299" gradientUnits="userSpaceOnUse">
<stop stop-color="white" stop-opacity="0.05"/>
<stop offset="1" stop-color="white" stop-opacity="0"/>
</linearGradient>
<linearGradient id="paint2_linear_2_41" x1="1319.25" y1="-8.17224" x2="1396.51" y2="69.0199" gradientUnits="userSpaceOnUse">
<stop stop-color="white" stop-opacity="0.05"/>
<stop offset="1" stop-color="white" stop-opacity="0"/>
</linearGradient>
<linearGradient id="paint3_linear_2_41" x1="232.225" y1="-9.25782" x2="232.225" y2="220.378" gradientUnits="userSpaceOnUse">
<stop stop-color="white" stop-opacity="0.05"/>
<stop offset="1" stop-color="white" stop-opacity="0"/>
</linearGradient>
<linearGradient id="paint4_linear_2_41" x1="907.606" y1="-9.25782" x2="907.606" y2="520.818" gradientUnits="userSpaceOnUse">
<stop stop-color="white" stop-opacity="0.05"/>
<stop offset="1" stop-color="white" stop-opacity="0"/>
</linearGradient>
<linearGradient id="paint5_linear_2_41" x1="945.127" y1="-9.25782" x2="945.127" y2="220.378" gradientUnits="userSpaceOnUse">
<stop stop-color="white" stop-opacity="0.05"/>
<stop offset="1" stop-color="white" stop-opacity="0"/>
</linearGradient>
<linearGradient id="paint6_linear_2_41" x1="832.563" y1="-9.25782" x2="832.563" y2="821.258" gradientUnits="userSpaceOnUse">
<stop stop-color="white" stop-opacity="0.05"/>
<stop offset="1" stop-color="white" stop-opacity="0"/>
</linearGradient>
<linearGradient id="paint7_linear_2_41" x1="494.873" y1="140.962" x2="494.873" y2="220.378" gradientUnits="userSpaceOnUse">
<stop stop-color="white" stop-opacity="0.05"/>
<stop offset="1" stop-color="white" stop-opacity="0"/>
</linearGradient>
<linearGradient id="paint8_linear_2_41" x1="1395.38" y1="216.072" x2="1395.38" y2="295.488" gradientUnits="userSpaceOnUse">
<stop stop-color="white" stop-opacity="0.05"/>
<stop offset="1" stop-color="white" stop-opacity="0"/>
</linearGradient>
<linearGradient id="paint9_linear_2_41" x1="756.438" y1="329.817" x2="758.591" y2="331.968" gradientUnits="userSpaceOnUse">
<stop stop-color="white" stop-opacity="0.05"/>
<stop offset="1" stop-color="white" stop-opacity="0"/>
</linearGradient>
<linearGradient id="paint10_linear_2_41" x1="119.662" y1="216.072" x2="119.662" y2="595.928" gradientUnits="userSpaceOnUse">
<stop stop-color="white" stop-opacity="0.05"/>
<stop offset="1" stop-color="white" stop-opacity="0"/>
</linearGradient>
<linearGradient id="paint11_linear_2_41" x1="419.831" y1="441.402" x2="419.831" y2="595.928" gradientUnits="userSpaceOnUse">
<stop stop-color="white" stop-opacity="0.05"/>
<stop offset="1" stop-color="white" stop-opacity="0"/>
</linearGradient>
<linearGradient id="paint12_linear_2_41" x1="1207.77" y1="140.962" x2="1207.77" y2="821.258" gradientUnits="userSpaceOnUse">
<stop stop-color="white" stop-opacity="0.05"/>
<stop offset="1" stop-color="white" stop-opacity="0"/>
</linearGradient>
<linearGradient id="paint13_linear_2_41" x1="119.662" y1="666.732" x2="119.662" y2="821.258" gradientUnits="userSpaceOnUse">
<stop stop-color="white" stop-opacity="0.05"/>
<stop offset="1" stop-color="white" stop-opacity="0"/>
</linearGradient>
<linearGradient id="paint14_linear_2_41" x1="906.519" y1="705.365" x2="908.672" y2="707.516" gradientUnits="userSpaceOnUse">
<stop stop-color="white" stop-opacity="0.05"/>
<stop offset="1" stop-color="white" stop-opacity="0"/>
</linearGradient>
<linearGradient id="paint15_linear_2_41" x1="269.746" y1="-9.25782" x2="269.746" y2="821.258" gradientUnits="userSpaceOnUse">
<stop stop-color="white" stop-opacity="0.05"/>
<stop offset="1" stop-color="white" stop-opacity="0"/>
</linearGradient>
<linearGradient id="paint16_linear_2_41" x1="681.393" y1="780.473" x2="683.546" y2="782.624" gradientUnits="userSpaceOnUse">
<stop stop-color="white" stop-opacity="0.05"/>
<stop offset="1" stop-color="white" stop-opacity="0"/>
</linearGradient>
<linearGradient id="paint17_linear_2_41" x1="1056.6" y1="780.476" x2="1058.75" y2="782.627" gradientUnits="userSpaceOnUse">
<stop stop-color="white" stop-opacity="0.05"/>
<stop offset="1" stop-color="white" stop-opacity="0"/>
</linearGradient>
<linearGradient id="paint18_linear_2_41" x1="1320.34" y1="666.732" x2="1320.34" y2="821.258" gradientUnits="userSpaceOnUse">
<stop stop-color="white" stop-opacity="0.05"/>
<stop offset="1" stop-color="white" stop-opacity="0"/>
</linearGradient>
<clipPath id="clip0_2_41">
<rect width="1440" height="812" fill="white"/>
</clipPath>
</defs>
</svg>
