<svg width="80" height="80" viewBox="0 0 80 80" fill="none" xmlns="http://www.w3.org/2000/svg">
<rect width="80" height="80" rx="40" fill="#D4F100"/>
<mask id="mask0_66_177" style="mask-type:alpha" maskUnits="userSpaceOnUse" x="20" y="20" width="40" height="40">
<rect x="20" y="20" width="40" height="40" fill="#D9D9D9"/>
</mask>
<g mask="url(#mask0_66_177)">
<path d="M21.9212 42.79C21.2776 41.6606 20.7965 40.525 20.4779 39.3833C20.1593 38.2419 20 37.1153 20 36.0033C20 32.9358 21.0671 30.3351 23.2012 28.2013C25.3351 26.0671 27.9339 25 30.9975 25C32.7466 25 34.4072 25.3618 35.9791 26.0854C37.5511 26.8087 38.8914 27.8081 40 29.0833C41.1086 27.8081 42.4489 26.8087 44.0208 26.0854C45.5928 25.3618 47.2525 25 49 25C52.0653 25 54.6648 26.0671 56.7987 28.2013C58.9329 30.3351 60 32.9358 60 36.0033C60 37.1153 59.84 38.2374 59.52 39.3696C59.2 40.5018 58.7196 41.6294 58.0787 42.7525C57.7321 42.3256 57.3341 41.9672 56.885 41.6775C56.4361 41.3878 55.9529 41.1646 55.4354 41.0079C55.8973 40.1468 56.2475 39.3007 56.4858 38.4696C56.7244 37.6385 56.8437 36.8153 56.8437 36C56.8437 33.8167 56.0822 31.9636 54.5592 30.4408C53.0364 28.9178 51.1833 28.1562 49 28.1562C47.3044 28.1562 45.7633 28.63 44.3766 29.5775C42.9897 30.525 41.5308 31.9199 40 33.7621C38.4691 31.9174 37.0103 30.5218 35.6233 29.5754C34.2366 28.6293 32.6955 28.1562 31 28.1562C28.8166 28.1562 26.9647 28.9178 25.4441 30.4408C23.9233 31.9636 23.1629 33.8167 23.1629 36C23.1629 36.8153 23.2811 37.6385 23.5175 38.4696C23.7536 39.3007 24.1048 40.1468 24.5712 41.0079C24.056 41.1646 23.5739 41.394 23.125 41.6963C22.6758 41.9985 22.2746 42.3631 21.9212 42.79ZM19.8671 57.3308V54.8479C19.8671 53.681 20.4735 52.7403 21.6862 52.0258C22.899 51.3114 24.4665 50.9542 26.3887 50.9542C26.7076 50.9542 27.0012 50.9594 27.2696 50.97C27.5382 50.9806 27.8075 51.0092 28.0775 51.0558C27.7908 51.5736 27.573 52.1149 27.4241 52.6796C27.2755 53.244 27.2012 53.8474 27.2012 54.4896V57.3308H19.8671ZM29.8671 57.3308V54.4896C29.8671 52.641 30.8029 51.1497 32.6746 50.0158C34.546 48.8822 36.9873 48.3154 39.9987 48.3154C43.0415 48.3154 45.4912 48.8822 47.3479 50.0158C49.2046 51.1497 50.1329 52.641 50.1329 54.4896V57.3308H29.8671ZM52.7987 57.3308V54.4871C52.7987 53.8465 52.7314 53.2442 52.5966 52.68C52.4617 52.1158 52.2543 51.5744 51.9746 51.0558C52.2448 51.0092 52.5132 50.9806 52.7796 50.97C53.0462 50.9594 53.3235 50.9542 53.6112 50.9542C55.5621 50.9542 57.1367 51.3111 58.335 52.025C59.5336 52.7392 60.1329 53.6811 60.1329 54.8508V57.3308H52.7987ZM26.3904 49.5983C25.5246 49.5983 24.7853 49.2915 24.1725 48.6779C23.56 48.0643 23.2537 47.3247 23.2537 46.4592C23.2537 45.5833 23.5601 44.8414 24.1729 44.2333C24.7854 43.6253 25.5239 43.3213 26.3883 43.3213C27.2628 43.3213 28.0051 43.6253 28.6154 44.2333C29.2257 44.8411 29.5308 45.5822 29.5308 46.4567C29.5308 47.3214 29.2264 48.0613 28.6175 48.6763C28.0086 49.291 27.2662 49.5983 26.3904 49.5983ZM53.6129 49.5983C52.7471 49.5983 52.0078 49.2915 51.395 48.6779C50.7822 48.0643 50.4758 47.3247 50.4758 46.4592C50.4758 45.5833 50.7822 44.8414 51.395 44.2333C52.0078 43.6253 52.7464 43.3213 53.6108 43.3213C54.485 43.3213 55.2272 43.6253 55.8375 44.2333C56.4478 44.8411 56.7529 45.5822 56.7529 46.4567C56.7529 47.3214 56.4486 48.0613 55.84 48.6763C55.2311 49.291 54.4887 49.5983 53.6129 49.5983ZM40.0033 47.075C38.5766 47.075 37.3639 46.5757 36.365 45.5771C35.3664 44.5785 34.8671 43.3658 34.8671 41.9392C34.8671 40.4892 35.3664 39.2717 36.365 38.2867C37.3639 37.3019 38.5766 36.8096 40.0033 36.8096C41.4533 36.8096 42.6707 37.3019 43.6554 38.2867C44.6404 39.2717 45.1329 40.4892 45.1329 41.9392C45.1329 43.3658 44.6404 44.5785 43.6554 45.5771C42.6707 46.5757 41.4533 47.075 40.0033 47.075Z" fill="#1C1B1F"/>
</g>
</svg>
