<svg width="80" height="80" viewBox="0 0 80 80" fill="none" xmlns="http://www.w3.org/2000/svg">
<rect width="80" height="80" rx="40" fill="#D4F100"/>
<mask id="mask0_46_23" style="mask-type:alpha" maskUnits="userSpaceOnUse" x="20" y="20" width="40" height="40">
<rect x="20" y="20" width="40" height="40" fill="#D9D9D9"/>
</mask>
<g mask="url(#mask0_46_23)">
<path d="M40 46.2762C39.2072 46.2762 38.5374 45.9984 37.9904 45.4429C37.4437 44.887 37.1704 44.2101 37.1704 43.412C37.1704 42.6193 37.4437 41.9448 37.9904 41.3887C38.5374 40.8326 39.2072 40.5545 40 40.5545C40.8114 40.5545 41.4963 40.832 42.0546 41.387C42.6129 41.942 42.8921 42.6181 42.8921 43.4154C42.8921 44.2126 42.6129 44.8887 42.0546 45.4437C41.4963 45.9987 40.8114 46.2762 40 46.2762ZM32.425 31.7524H47.6275L51.1192 24.7141H28.8987L32.425 31.7524ZM33.8458 55.2791H46.1821C48.7124 55.2791 50.8668 54.393 52.6454 52.6208C54.424 50.8486 55.3133 48.6933 55.3133 46.1549C55.295 45.0702 55.1049 44.029 54.7429 43.0312C54.381 42.0334 53.8557 41.1208 53.1671 40.2933L48.3767 34.5299H31.6508L26.8229 40.2933C26.1526 41.1147 25.6347 42.0251 25.2692 43.0245C24.9036 44.0243 24.7208 45.0662 24.7208 46.1504C24.7208 48.6915 25.6071 50.8483 27.3796 52.6208C29.1518 54.393 31.3072 55.2791 33.8458 55.2791Z" fill="#051912"/>
</g>
</svg>
