<svg width="238" height="205" viewBox="0 0 238 205" fill="none" xmlns="http://www.w3.org/2000/svg">
<g filter="url(#filter0_dddd_234_56)">
<rect x="37" y="7" width="164" height="68" rx="12" fill="white"/>
<rect x="49" y="19" width="44" height="44" rx="22" fill="#D4F100"/>
<mask id="mask0_234_56" style="mask-type:alpha" maskUnits="userSpaceOnUse" x="59" y="29" width="24" height="24">
<rect x="59" y="29" width="24" height="24" fill="#D9D9D9"/>
</mask>
<g mask="url(#mask0_234_56)">
<path d="M62.418 47.1255L60.8925 45.6L66.2523 40.2343C66.8554 39.6309 67.5857 39.3293 68.443 39.3293C69.3002 39.3293 70.0304 39.6309 70.6338 40.2343L71.7838 41.3843C71.9678 41.5683 72.1833 41.6603 72.4305 41.6603C72.6775 41.6603 72.8931 41.5683 73.0773 41.3843L77.3718 37.0898H74.9283V34.9103H81.1075V41.0898H78.9283V38.6463L74.6088 42.9408C74.0054 43.5441 73.2752 43.8458 72.418 43.8458C71.5607 43.8458 70.8304 43.5441 70.2273 42.9408L69.0523 41.7658C68.8808 41.5944 68.6694 41.5088 68.418 41.5088C68.1665 41.5088 67.9551 41.5944 67.7838 41.7658L62.418 47.1255Z" fill="#051912"/>
</g>
<path d="M104.836 32.5V28.426L101.056 22.294H102.414L105.396 27.264H105.466L108.476 22.294H109.82L106.026 28.426V32.5H104.836ZM110.951 32.5V25.15H112.085V32.5H110.951ZM110.951 23.932V22.294H112.085V23.932H110.951ZM117.2 32.626C116.482 32.626 115.861 32.472 115.338 32.164C114.816 31.8467 114.41 31.4033 114.12 30.834C113.84 30.2647 113.7 29.602 113.7 28.846C113.7 28.0807 113.84 27.4133 114.12 26.844C114.4 26.2653 114.797 25.822 115.31 25.514C115.833 25.1967 116.444 25.038 117.144 25.038C117.938 25.038 118.586 25.2153 119.09 25.57C119.604 25.9153 119.972 26.3913 120.196 26.998C120.43 27.5953 120.509 28.272 120.434 29.028H114.82C114.839 29.588 114.946 30.0687 115.142 30.47C115.338 30.862 115.609 31.1653 115.954 31.38C116.309 31.5853 116.724 31.688 117.2 31.688C117.751 31.688 118.213 31.562 118.586 31.31C118.969 31.0487 119.212 30.7033 119.314 30.274H120.406C120.341 30.7407 120.159 31.1513 119.86 31.506C119.571 31.8607 119.193 32.136 118.726 32.332C118.269 32.528 117.76 32.626 117.2 32.626ZM114.834 28.356L114.722 28.146H119.454L119.328 28.384C119.347 27.8147 119.258 27.3527 119.062 26.998C118.876 26.634 118.614 26.3727 118.278 26.214C117.942 26.046 117.56 25.962 117.13 25.962C116.682 25.962 116.286 26.06 115.94 26.256C115.604 26.4427 115.343 26.718 115.156 27.082C114.97 27.4367 114.862 27.8613 114.834 28.356ZM122.08 32.5V22.294H123.214V32.5H122.08ZM127.853 32.626C127.405 32.626 126.995 32.542 126.621 32.374C126.257 32.1967 125.94 31.9493 125.669 31.632C125.399 31.3053 125.189 30.9087 125.039 30.442C124.899 29.966 124.829 29.4247 124.829 28.818C124.829 28.0153 124.955 27.3293 125.207 26.76C125.469 26.1907 125.823 25.7613 126.271 25.472C126.729 25.1733 127.256 25.024 127.853 25.024C128.283 25.024 128.67 25.094 129.015 25.234C129.37 25.3647 129.669 25.556 129.911 25.808C130.154 26.0507 130.336 26.34 130.457 26.676H130.527V22.294H131.661L131.647 32.5H130.569L130.527 30.96H130.457C130.271 31.4547 129.953 31.856 129.505 32.164C129.057 32.472 128.507 32.626 127.853 32.626ZM128.231 31.674C128.726 31.674 129.141 31.5573 129.477 31.324C129.813 31.0907 130.07 30.792 130.247 30.428C130.425 30.064 130.513 29.6767 130.513 29.266V28.37C130.513 28.062 130.462 27.768 130.359 27.488C130.257 27.1987 130.112 26.942 129.925 26.718C129.739 26.4847 129.501 26.3027 129.211 26.172C128.931 26.032 128.605 25.962 128.231 25.962C127.783 25.962 127.391 26.074 127.055 26.298C126.719 26.5127 126.458 26.83 126.271 27.25C126.085 27.67 125.991 28.1927 125.991 28.818C125.991 29.434 126.085 29.9567 126.271 30.386C126.458 30.806 126.719 31.128 127.055 31.352C127.391 31.5667 127.783 31.674 128.231 31.674ZM137.22 32.5V22.294H138.41V32.5H137.22ZM140.796 32.5V25.15H141.874L141.916 26.676H142C142.224 26.1347 142.57 25.7287 143.036 25.458C143.503 25.178 144.012 25.038 144.562 25.038C144.945 25.038 145.295 25.094 145.612 25.206C145.939 25.318 146.219 25.5 146.452 25.752C146.695 26.004 146.882 26.3307 147.012 26.732C147.143 27.124 147.208 27.6047 147.208 28.174V32.5H146.074V28.398C146.074 27.8473 146.004 27.3947 145.864 27.04C145.734 26.6853 145.528 26.424 145.248 26.256C144.978 26.0787 144.628 25.99 144.198 25.99C143.741 25.99 143.34 26.102 142.994 26.326C142.649 26.55 142.383 26.8533 142.196 27.236C142.01 27.6093 141.916 28.0387 141.916 28.524V32.5H140.796ZM151.041 32.5C150.677 32.5 150.388 32.4487 150.173 32.346C149.968 32.2433 149.819 32.0893 149.725 31.884C149.641 31.6693 149.599 31.408 149.599 31.1V26.088H148.171V25.15H149.599V22.952L150.733 22.798V25.15H152.441V26.088H150.733V30.904C150.733 31.1653 150.78 31.338 150.873 31.422C150.967 31.506 151.139 31.548 151.391 31.548H152.441V32.5H151.041ZM156.698 32.626C155.98 32.626 155.359 32.472 154.836 32.164C154.314 31.8467 153.908 31.4033 153.618 30.834C153.338 30.2647 153.198 29.602 153.198 28.846C153.198 28.0807 153.338 27.4133 153.618 26.844C153.898 26.2653 154.295 25.822 154.808 25.514C155.331 25.1967 155.942 25.038 156.642 25.038C157.436 25.038 158.084 25.2153 158.588 25.57C159.102 25.9153 159.47 26.3913 159.694 26.998C159.928 27.5953 160.007 28.272 159.932 29.028H154.318C154.337 29.588 154.444 30.0687 154.64 30.47C154.836 30.862 155.107 31.1653 155.452 31.38C155.807 31.5853 156.222 31.688 156.698 31.688C157.249 31.688 157.711 31.562 158.084 31.31C158.467 31.0487 158.71 30.7033 158.812 30.274H159.904C159.839 30.7407 159.657 31.1513 159.358 31.506C159.069 31.8607 158.691 32.136 158.224 32.332C157.767 32.528 157.258 32.626 156.698 32.626ZM154.332 28.356L154.22 28.146H158.952L158.826 28.384C158.845 27.8147 158.756 27.3527 158.56 26.998C158.374 26.634 158.112 26.3727 157.776 26.214C157.44 26.046 157.058 25.962 156.628 25.962C156.18 25.962 155.784 26.06 155.438 26.256C155.102 26.4427 154.841 26.718 154.654 27.082C154.468 27.4367 154.36 27.8613 154.332 28.356ZM161.578 32.5V25.15H162.586L162.656 26.508H162.712C162.87 26.0413 163.15 25.682 163.552 25.43C163.953 25.178 164.401 25.052 164.896 25.052C164.98 25.052 165.059 25.0567 165.134 25.066C165.208 25.066 165.278 25.0707 165.344 25.08V26.158C165.278 26.1487 165.208 26.144 165.134 26.144C165.059 26.1347 164.98 26.13 164.896 26.13C164.466 26.13 164.093 26.2093 163.776 26.368C163.458 26.5267 163.206 26.7553 163.02 27.054C162.842 27.3433 162.735 27.698 162.698 28.118V32.5H161.578ZM169.386 32.626C168.667 32.626 168.047 32.472 167.524 32.164C167.001 31.8467 166.595 31.4033 166.306 30.834C166.026 30.2647 165.886 29.602 165.886 28.846C165.886 28.0807 166.026 27.4133 166.306 26.844C166.586 26.2653 166.983 25.822 167.496 25.514C168.019 25.1967 168.63 25.038 169.33 25.038C170.123 25.038 170.772 25.2153 171.276 25.57C171.789 25.9153 172.158 26.3913 172.382 26.998C172.615 27.5953 172.695 28.272 172.62 29.028H167.006C167.025 29.588 167.132 30.0687 167.328 30.47C167.524 30.862 167.795 31.1653 168.14 31.38C168.495 31.5853 168.91 31.688 169.386 31.688C169.937 31.688 170.399 31.562 170.772 31.31C171.155 31.0487 171.397 30.7033 171.5 30.274H172.592C172.527 30.7407 172.345 31.1513 172.046 31.506C171.757 31.8607 171.379 32.136 170.912 32.332C170.455 32.528 169.946 32.626 169.386 32.626ZM167.02 28.356L166.908 28.146H171.64L171.514 28.384C171.533 27.8147 171.444 27.3527 171.248 26.998C171.061 26.634 170.8 26.3727 170.464 26.214C170.128 26.046 169.745 25.962 169.316 25.962C168.868 25.962 168.471 26.06 168.126 26.256C167.79 26.4427 167.529 26.718 167.342 27.082C167.155 27.4367 167.048 27.8613 167.02 28.356ZM176.911 32.64C175.931 32.64 175.175 32.416 174.643 31.968C174.121 31.52 173.859 30.932 173.859 30.204H174.993C174.993 30.7547 175.175 31.1607 175.539 31.422C175.903 31.674 176.37 31.8 176.939 31.8C177.527 31.8 177.975 31.6927 178.283 31.478C178.591 31.2633 178.745 30.96 178.745 30.568C178.745 30.26 178.68 30.022 178.549 29.854C178.419 29.686 178.213 29.56 177.933 29.476C177.653 29.3827 177.289 29.3033 176.841 29.238C176.421 29.1727 176.039 29.098 175.693 29.014C175.357 28.9207 175.068 28.7993 174.825 28.65C174.583 28.4913 174.396 28.2907 174.265 28.048C174.135 27.8053 174.069 27.5067 174.069 27.152C174.069 26.704 174.186 26.3213 174.419 26.004C174.662 25.6867 174.993 25.444 175.413 25.276C175.843 25.0987 176.342 25.01 176.911 25.01C177.509 25.01 178.017 25.1033 178.437 25.29C178.857 25.4767 179.179 25.7427 179.403 26.088C179.627 26.424 179.744 26.83 179.753 27.306H178.647C178.638 26.9607 178.559 26.6853 178.409 26.48C178.269 26.2653 178.069 26.1067 177.807 26.004C177.555 25.9013 177.252 25.85 176.897 25.85C176.356 25.85 175.936 25.962 175.637 26.186C175.348 26.4007 175.203 26.6853 175.203 27.04C175.203 27.3013 175.273 27.516 175.413 27.684C175.553 27.852 175.768 27.9827 176.057 28.076C176.347 28.16 176.711 28.2347 177.149 28.3C177.541 28.356 177.901 28.426 178.227 28.51C178.554 28.594 178.843 28.7107 179.095 28.86C179.347 29.0093 179.543 29.2147 179.683 29.476C179.833 29.7373 179.907 30.0687 179.907 30.47C179.907 31.1887 179.637 31.73 179.095 32.094C178.554 32.458 177.826 32.64 176.911 32.64ZM183.608 32.5C183.244 32.5 182.954 32.4487 182.74 32.346C182.534 32.2433 182.385 32.0893 182.292 31.884C182.208 31.6693 182.166 31.408 182.166 31.1V26.088H180.738V25.15H182.166V22.952L183.3 22.798V25.15H185.008V26.088H183.3V30.904C183.3 31.1653 183.346 31.338 183.44 31.422C183.533 31.506 183.706 31.548 183.958 31.548H185.008V32.5H183.608Z" fill="#3B3B3B"/>
<path d="M106.167 57V55.3167C104.756 55.1833 103.65 54.7444 102.85 54C102.05 53.2556 101.606 52.3167 101.517 51.1833H104.017C104.139 51.9056 104.467 52.4444 105 52.8C105.533 53.1556 106.244 53.3333 107.133 53.3333C107.967 53.3333 108.594 53.1889 109.017 52.9C109.439 52.6 109.65 52.1833 109.65 51.65C109.65 51.25 109.5 50.9167 109.2 50.65C108.9 50.3722 108.422 50.1667 107.767 50.0333L105.567 49.55C104.356 49.2722 103.456 48.8444 102.867 48.2667C102.289 47.6778 102 46.95 102 46.0833C102 45.0833 102.344 44.25 103.033 43.5833C103.722 42.9167 104.683 42.5167 105.917 42.3833V41H107.817V42.4C109.017 42.5556 109.972 42.9778 110.683 43.6667C111.406 44.3556 111.817 45.2333 111.917 46.3H109.417C109.294 45.6556 109 45.1667 108.533 44.8333C108.078 44.4889 107.45 44.3167 106.65 44.3167C105.928 44.3167 105.367 44.4556 104.967 44.7333C104.567 45.0111 104.367 45.3833 104.367 45.85C104.367 46.2167 104.511 46.5278 104.8 46.7833C105.089 47.0278 105.544 47.2167 106.167 47.35L108.5 47.8667C109.7 48.1222 110.589 48.55 111.167 49.15C111.744 49.75 112.033 50.5167 112.033 51.45C112.033 52.5167 111.689 53.3944 111 54.0833C110.311 54.7611 109.328 55.1722 108.05 55.3167V57H106.167ZM113.287 55.5V53.8167L118.871 48.45C119.515 47.8389 119.948 47.3444 120.171 46.9667C120.404 46.5889 120.521 46.1944 120.521 45.7833C120.521 45.1833 120.321 44.7167 119.921 44.3833C119.532 44.0389 118.982 43.8667 118.271 43.8667C116.726 43.8667 115.859 44.6556 115.671 46.2333H113.287C113.376 44.8333 113.859 43.7444 114.737 42.9667C115.626 42.1889 116.815 41.8 118.304 41.8C119.248 41.8 120.071 41.9611 120.771 42.2833C121.471 42.6056 122.009 43.0611 122.387 43.65C122.776 44.2389 122.971 44.9333 122.971 45.7333C122.971 46.4111 122.782 47.0611 122.404 47.6833C122.037 48.3056 121.448 49 120.637 49.7667L116.854 53.3167V53.3833H123.154V55.5H113.287ZM129.708 55.7C128.174 55.7 126.969 55.3667 126.091 54.7C125.213 54.0222 124.713 53.0611 124.591 51.8167H127.074C127.141 52.4167 127.397 52.8722 127.841 53.1833C128.286 53.4833 128.897 53.6333 129.674 53.6333C130.508 53.6333 131.158 53.4444 131.624 53.0667C132.091 52.6889 132.324 52.1667 132.324 51.5C132.324 50.8778 132.102 50.3833 131.658 50.0167C131.213 49.65 130.619 49.4667 129.874 49.4667H127.741V47.5H129.924C130.558 47.5 131.063 47.3389 131.441 47.0167C131.819 46.6833 132.008 46.2444 132.008 45.7C132.008 45.1222 131.802 44.6667 131.391 44.3333C130.98 43.9889 130.424 43.8167 129.724 43.8167C129.002 43.8167 128.43 43.9778 128.008 44.3C127.586 44.6111 127.319 45.0778 127.208 45.7H124.824C124.891 44.9111 125.136 44.2222 125.558 43.6333C125.98 43.0444 126.552 42.5944 127.274 42.2833C128.008 41.9611 128.858 41.8 129.824 41.8C130.747 41.8 131.552 41.95 132.241 42.25C132.941 42.5389 133.48 42.9556 133.858 43.5C134.236 44.0333 134.424 44.6611 134.424 45.3833C134.424 46.0056 134.236 46.5722 133.858 47.0833C133.491 47.5944 132.969 47.9944 132.291 48.2833V48.3667C133.091 48.6 133.708 49 134.141 49.5667C134.586 50.1333 134.808 50.8111 134.808 51.6C134.808 52.4222 134.597 53.1444 134.174 53.7667C133.752 54.3778 133.158 54.8556 132.391 55.2C131.636 55.5333 130.741 55.7 129.708 55.7ZM142.578 55.5V52.4667H135.728V50.8L142.728 42H144.995V50.5333H146.795V52.4667H144.995V55.5H142.578ZM138.412 50.5333H142.678V45.25H142.612L138.412 50.5333ZM149.382 55.7C148.949 55.7 148.577 55.55 148.266 55.25C147.966 54.9389 147.816 54.5667 147.816 54.1333C147.816 53.7 147.966 53.3333 148.266 53.0333C148.577 52.7222 148.949 52.5667 149.382 52.5667C149.816 52.5667 150.182 52.7222 150.482 53.0333C150.793 53.3333 150.949 53.7 150.949 54.1333C150.949 54.5667 150.793 54.9389 150.482 55.25C150.182 55.55 149.816 55.7 149.382 55.7ZM157.176 55.7C155.82 55.7 154.731 55.3944 153.909 54.7833C153.098 54.1611 152.587 53.2611 152.376 52.0833H154.909C155.064 52.6389 155.326 53.05 155.692 53.3167C156.059 53.5722 156.553 53.7 157.176 53.7C158.12 53.7 158.814 53.3278 159.259 52.5833C159.714 51.8389 159.953 50.65 159.976 49.0167H159.892C159.559 49.55 159.12 49.9556 158.576 50.2333C158.031 50.5111 157.403 50.65 156.692 50.65C155.814 50.65 155.048 50.4722 154.392 50.1167C153.737 49.7611 153.226 49.2667 152.859 48.6333C152.503 48 152.326 47.2556 152.326 46.4C152.326 45.4889 152.52 44.6889 152.909 44C153.309 43.3 153.87 42.7611 154.592 42.3833C155.314 41.9944 156.164 41.8 157.142 41.8C158.864 41.8 160.181 42.3778 161.092 43.5333C162.014 44.6889 162.476 46.3556 162.476 48.5333C162.476 50.8778 162.026 52.6611 161.126 53.8833C160.226 55.0944 158.909 55.7 157.176 55.7ZM157.376 48.6667C158.12 48.6667 158.72 48.4667 159.176 48.0667C159.642 47.6556 159.87 47.1222 159.859 46.4667C159.848 45.6667 159.598 45.0222 159.109 44.5333C158.62 44.0444 157.987 43.8 157.209 43.8C156.442 43.8 155.831 44.0222 155.376 44.4667C154.931 44.9111 154.709 45.5167 154.709 46.2833C154.709 47.0167 154.948 47.6 155.426 48.0333C155.903 48.4556 156.553 48.6667 157.376 48.6667ZM168.996 55.7C167.974 55.7 167.079 55.5389 166.313 55.2167C165.546 54.8833 164.946 54.4167 164.513 53.8167C164.091 53.2167 163.879 52.5167 163.879 51.7167C163.879 50.9167 164.107 50.25 164.563 49.7167C165.018 49.1722 165.613 48.7556 166.346 48.4667V48.4C165.724 48.1222 165.224 47.7222 164.846 47.2C164.479 46.6778 164.296 46.0944 164.296 45.45C164.296 44.7278 164.485 44.0944 164.863 43.55C165.252 43.0056 165.796 42.5778 166.496 42.2667C167.207 41.9556 168.041 41.8 168.996 41.8C169.963 41.8 170.796 41.9556 171.496 42.2667C172.207 42.5778 172.752 43.0111 173.129 43.5667C173.507 44.1111 173.696 44.7389 173.696 45.45C173.696 46.0833 173.513 46.65 173.146 47.15C172.779 47.6389 172.274 48.0222 171.629 48.3V48.3667C172.363 48.6556 172.957 49.0889 173.413 49.6667C173.879 50.2333 174.113 50.9167 174.113 51.7167C174.113 52.5056 173.896 53.2 173.463 53.8C173.041 54.4 172.446 54.8667 171.679 55.2C170.913 55.5333 170.018 55.7 168.996 55.7ZM168.996 53.65C169.796 53.65 170.435 53.4611 170.913 53.0833C171.402 52.6944 171.646 52.1778 171.646 51.5333C171.646 50.8889 171.402 50.3778 170.913 50C170.435 49.6111 169.796 49.4167 168.996 49.4167C168.196 49.4167 167.552 49.6111 167.063 50C166.585 50.3778 166.346 50.8889 166.346 51.5333C166.346 52.1778 166.585 52.6944 167.063 53.0833C167.552 53.4611 168.196 53.65 168.996 53.65ZM168.996 47.4167C169.718 47.4167 170.279 47.2556 170.679 46.9333C171.091 46.6111 171.296 46.1722 171.296 45.6167C171.296 45.0611 171.091 44.6222 170.679 44.3C170.279 43.9667 169.718 43.8 168.996 43.8C168.285 43.8 167.724 43.9667 167.313 44.3C166.913 44.6222 166.713 45.0611 166.713 45.6167C166.713 46.1722 166.913 46.6111 167.313 46.9333C167.724 47.2556 168.285 47.4167 168.996 47.4167ZM176.233 55.5V42H178.783V47.8H178.85L184.95 42H188.083L182.1 47.6333L188.233 55.5H185.183L180.283 49.1833L178.783 50.3833V55.5H176.233Z" fill="#051912"/>
</g>
<defs>
<filter id="filter0_dddd_234_56" x="0" y="0" width="238" height="205" filterUnits="userSpaceOnUse" color-interpolation-filters="sRGB">
<feFlood flood-opacity="0" result="BackgroundImageFix"/>
<feColorMatrix in="SourceAlpha" type="matrix" values="0 0 0 0 0 0 0 0 0 0 0 0 0 0 0 0 0 0 127 0" result="hardAlpha"/>
<feOffset dy="6"/>
<feGaussianBlur stdDeviation="6.5"/>
<feColorMatrix type="matrix" values="0 0 0 0 0 0 0 0 0 0 0 0 0 0 0 0 0 0 0.2 0"/>
<feBlend mode="normal" in2="BackgroundImageFix" result="effect1_dropShadow_234_56"/>
<feColorMatrix in="SourceAlpha" type="matrix" values="0 0 0 0 0 0 0 0 0 0 0 0 0 0 0 0 0 0 127 0" result="hardAlpha"/>
<feOffset dy="23"/>
<feGaussianBlur stdDeviation="11.5"/>
<feColorMatrix type="matrix" values="0 0 0 0 0 0 0 0 0 0 0 0 0 0 0 0 0 0 0.17 0"/>
<feBlend mode="normal" in2="effect1_dropShadow_234_56" result="effect2_dropShadow_234_56"/>
<feColorMatrix in="SourceAlpha" type="matrix" values="0 0 0 0 0 0 0 0 0 0 0 0 0 0 0 0 0 0 127 0" result="hardAlpha"/>
<feOffset dy="52"/>
<feGaussianBlur stdDeviation="15.5"/>
<feColorMatrix type="matrix" values="0 0 0 0 0 0 0 0 0 0 0 0 0 0 0 0 0 0 0.1 0"/>
<feBlend mode="normal" in2="effect2_dropShadow_234_56" result="effect3_dropShadow_234_56"/>
<feColorMatrix in="SourceAlpha" type="matrix" values="0 0 0 0 0 0 0 0 0 0 0 0 0 0 0 0 0 0 127 0" result="hardAlpha"/>
<feOffset dy="93"/>
<feGaussianBlur stdDeviation="18.5"/>
<feColorMatrix type="matrix" values="0 0 0 0 0 0 0 0 0 0 0 0 0 0 0 0 0 0 0.03 0"/>
<feBlend mode="normal" in2="effect3_dropShadow_234_56" result="effect4_dropShadow_234_56"/>
<feBlend mode="normal" in="SourceGraphic" in2="effect4_dropShadow_234_56" result="shape"/>
</filter>
</defs>
</svg>
