<svg width="344" height="233" viewBox="0 0 344 233" fill="none" xmlns="http://www.w3.org/2000/svg">
<g filter="url(#filter0_dddd_234_44)">
<rect x="37" y="7" width="270" height="96" rx="16" fill="white"/>
<rect x="53" y="23" width="64" height="64" rx="32" fill="#D4F100"/>
<mask id="mask0_234_44" style="mask-type:alpha" maskUnits="userSpaceOnUse" x="65" y="35" width="40" height="40">
<rect x="65" y="35" width="40" height="40" fill="#D9D9D9"/>
</mask>
<g mask="url(#mask0_234_44)">
<path d="M83.6063 70.1229V66.5717C82.0157 66.2667 80.6977 65.6317 79.6521 64.6667C78.6063 63.7014 77.8552 62.4351 77.3988 60.8679L80.2246 59.7362C80.6674 61.096 81.3199 62.1026 82.1821 62.7562C83.0446 63.4096 84.097 63.7362 85.3392 63.7362C86.5878 63.7362 87.6141 63.4411 88.418 62.8508C89.2216 62.2605 89.6234 61.4214 89.6234 60.3333C89.6234 59.2322 89.2646 58.3661 88.5471 57.735C87.8296 57.1042 86.4013 56.4446 84.2621 55.7562C82.1502 55.0937 80.613 54.2243 79.6505 53.1479C78.688 52.0715 78.2067 50.7444 78.2067 49.1667C78.2067 47.5683 78.7216 46.2467 79.7513 45.2017C80.7807 44.1567 82.0657 43.5469 83.6063 43.3725V39.8771H86.5071V43.3725C87.821 43.5658 88.9394 44.0301 89.8621 44.7654C90.7849 45.5007 91.4776 46.4343 91.9401 47.5662L89.1342 48.7571C88.7659 47.8815 88.2617 47.2321 87.6217 46.8087C86.9817 46.3854 86.1417 46.1737 85.1017 46.1737C83.8801 46.1737 82.931 46.4419 82.2546 46.9783C81.5782 47.5144 81.2401 48.2269 81.2401 49.1158C81.2401 50.0828 81.6352 50.8642 82.4255 51.46C83.2155 52.0555 84.7164 52.6864 86.9284 53.3525C88.8442 53.94 90.2778 54.808 91.2292 55.9567C92.1809 57.1053 92.6567 58.5179 92.6567 60.1946C92.6567 62.0407 92.1142 63.5004 91.0292 64.5737C89.9439 65.6471 88.4366 66.3317 86.5071 66.6275V70.1229H83.6063Z" fill="#1C1B1F"/>
</g>
<path d="M130.302 44V33.794H134.922C135.463 33.794 135.939 33.8547 136.35 33.976C136.761 34.0973 137.101 34.2793 137.372 34.522C137.652 34.7553 137.862 35.0447 138.002 35.39C138.142 35.726 138.212 36.1133 138.212 36.552C138.212 37.168 138.058 37.6953 137.75 38.134C137.442 38.5727 136.989 38.8713 136.392 39.03V39.128C136.971 39.2213 137.381 39.436 137.624 39.772C137.867 40.108 137.988 40.57 137.988 41.158V42.922C137.988 43.09 137.993 43.2627 138.002 43.44C138.021 43.6173 138.067 43.804 138.142 44H136.938C136.873 43.8507 136.831 43.6873 136.812 43.51C136.793 43.3233 136.784 43.1133 136.784 42.88V41.368C136.784 40.9853 136.728 40.6727 136.616 40.43C136.513 40.178 136.322 39.9913 136.042 39.87C135.762 39.7393 135.361 39.674 134.838 39.674H131.492V44H130.302ZM131.492 38.694H134.768C135.561 38.694 136.126 38.5073 136.462 38.134C136.807 37.7607 136.98 37.2847 136.98 36.706C136.98 36.258 136.887 35.8987 136.7 35.628C136.523 35.348 136.266 35.1427 135.93 35.012C135.603 34.8813 135.216 34.816 134.768 34.816H131.492V38.694ZM142.89 44.126C142.171 44.126 141.55 43.972 141.028 43.664C140.505 43.3467 140.099 42.9033 139.81 42.334C139.53 41.7647 139.39 41.102 139.39 40.346C139.39 39.5807 139.53 38.9133 139.81 38.344C140.09 37.7653 140.486 37.322 141 37.014C141.522 36.6967 142.134 36.538 142.834 36.538C143.627 36.538 144.276 36.7153 144.78 37.07C145.293 37.4153 145.662 37.8913 145.886 38.498C146.119 39.0953 146.198 39.772 146.124 40.528H140.51C140.528 41.088 140.636 41.5687 140.832 41.97C141.028 42.362 141.298 42.6653 141.644 42.88C141.998 43.0853 142.414 43.188 142.89 43.188C143.44 43.188 143.902 43.062 144.276 42.81C144.658 42.5487 144.901 42.2033 145.004 41.774H146.096C146.03 42.2407 145.848 42.6513 145.55 43.006C145.26 43.3607 144.882 43.636 144.416 43.832C143.958 44.028 143.45 44.126 142.89 44.126ZM140.524 39.856L140.412 39.646H145.144L145.018 39.884C145.036 39.3147 144.948 38.8527 144.752 38.498C144.565 38.134 144.304 37.8727 143.968 37.714C143.632 37.546 143.249 37.462 142.82 37.462C142.372 37.462 141.975 37.56 141.63 37.756C141.294 37.9427 141.032 38.218 140.846 38.582C140.659 38.9367 140.552 39.3613 140.524 39.856ZM150.916 44.126C150.384 44.126 149.898 44.0373 149.46 43.86C149.03 43.6733 148.662 43.4167 148.354 43.09C148.046 42.754 147.808 42.3573 147.64 41.9C147.472 41.4333 147.388 40.9107 147.388 40.332C147.388 39.576 147.532 38.9133 147.822 38.344C148.12 37.7747 148.536 37.3313 149.068 37.014C149.609 36.6967 150.239 36.538 150.958 36.538C151.536 36.538 152.054 36.6453 152.512 36.86C152.969 37.0747 153.338 37.378 153.618 37.77C153.898 38.1527 154.056 38.6007 154.094 39.114H153.002C152.936 38.7593 152.806 38.4653 152.61 38.232C152.414 37.9987 152.171 37.8213 151.882 37.7C151.592 37.5693 151.275 37.504 150.93 37.504C150.426 37.504 149.996 37.6253 149.642 37.868C149.287 38.1013 149.012 38.4327 148.816 38.862C148.629 39.282 148.536 39.7767 148.536 40.346C148.536 40.934 148.634 41.438 148.83 41.858C149.035 42.278 149.315 42.6 149.67 42.824C150.024 43.048 150.44 43.16 150.916 43.16C151.308 43.16 151.653 43.09 151.952 42.95C152.26 42.8007 152.502 42.5953 152.68 42.334C152.866 42.0727 152.983 41.7693 153.03 41.424H154.136C154.089 41.9653 153.921 42.4413 153.632 42.852C153.352 43.2533 152.978 43.566 152.512 43.79C152.045 44.014 151.513 44.126 150.916 44.126ZM158.681 44.126C157.962 44.126 157.341 43.972 156.819 43.664C156.296 43.3467 155.89 42.9033 155.601 42.334C155.321 41.7647 155.181 41.102 155.181 40.346C155.181 39.5807 155.321 38.9133 155.601 38.344C155.881 37.7653 156.277 37.322 156.791 37.014C157.313 36.6967 157.925 36.538 158.625 36.538C159.418 36.538 160.067 36.7153 160.571 37.07C161.084 37.4153 161.453 37.8913 161.677 38.498C161.91 39.0953 161.989 39.772 161.915 40.528H156.301C156.319 41.088 156.427 41.5687 156.623 41.97C156.819 42.362 157.089 42.6653 157.435 42.88C157.789 43.0853 158.205 43.188 158.681 43.188C159.231 43.188 159.693 43.062 160.067 42.81C160.449 42.5487 160.692 42.2033 160.795 41.774H161.887C161.821 42.2407 161.639 42.6513 161.341 43.006C161.051 43.3607 160.673 43.636 160.207 43.832C159.749 44.028 159.241 44.126 158.681 44.126ZM156.315 39.856L156.203 39.646H160.935L160.809 39.884C160.827 39.3147 160.739 38.8527 160.543 38.498C160.356 38.134 160.095 37.8727 159.759 37.714C159.423 37.546 159.04 37.462 158.611 37.462C158.163 37.462 157.766 37.56 157.421 37.756C157.085 37.9427 156.823 38.218 156.637 38.582C156.45 38.9367 156.343 39.3613 156.315 39.856ZM163.56 44V36.65H164.694V44H163.56ZM163.56 35.432V33.794H164.694V35.432H163.56ZM168.41 44L165.708 36.65H166.94L168.592 41.48L169.082 42.992H169.124L169.586 41.48L171.238 36.65H172.456L169.782 44H168.41ZM176.331 44.126C175.612 44.126 174.992 43.972 174.469 43.664C173.946 43.3467 173.54 42.9033 173.251 42.334C172.971 41.7647 172.831 41.102 172.831 40.346C172.831 39.5807 172.971 38.9133 173.251 38.344C173.531 37.7653 173.928 37.322 174.441 37.014C174.964 36.6967 175.575 36.538 176.275 36.538C177.068 36.538 177.717 36.7153 178.221 37.07C178.734 37.4153 179.103 37.8913 179.327 38.498C179.56 39.0953 179.64 39.772 179.565 40.528H173.951C173.97 41.088 174.077 41.5687 174.273 41.97C174.469 42.362 174.74 42.6653 175.085 42.88C175.44 43.0853 175.855 43.188 176.331 43.188C176.882 43.188 177.344 43.062 177.717 42.81C178.1 42.5487 178.342 42.2033 178.445 41.774H179.537C179.472 42.2407 179.29 42.6513 178.991 43.006C178.702 43.3607 178.324 43.636 177.857 43.832C177.4 44.028 176.891 44.126 176.331 44.126ZM173.965 39.856L173.853 39.646H178.585L178.459 39.884C178.478 39.3147 178.389 38.8527 178.193 38.498C178.006 38.134 177.745 37.8727 177.409 37.714C177.073 37.546 176.69 37.462 176.261 37.462C175.813 37.462 175.416 37.56 175.071 37.756C174.735 37.9427 174.474 38.218 174.287 38.582C174.1 38.9367 173.993 39.3613 173.965 39.856ZM183.853 44.126C183.405 44.126 182.995 44.042 182.621 43.874C182.257 43.6967 181.94 43.4493 181.669 43.132C181.399 42.8053 181.189 42.4087 181.039 41.942C180.899 41.466 180.829 40.9247 180.829 40.318C180.829 39.5153 180.955 38.8293 181.207 38.26C181.469 37.6907 181.823 37.2613 182.271 36.972C182.729 36.6733 183.256 36.524 183.853 36.524C184.283 36.524 184.67 36.594 185.015 36.734C185.37 36.8647 185.669 37.056 185.911 37.308C186.154 37.5507 186.336 37.84 186.457 38.176H186.527V33.794H187.661L187.647 44H186.569L186.527 42.46H186.457C186.271 42.9547 185.953 43.356 185.505 43.664C185.057 43.972 184.507 44.126 183.853 44.126ZM184.231 43.174C184.726 43.174 185.141 43.0573 185.477 42.824C185.813 42.5907 186.07 42.292 186.247 41.928C186.425 41.564 186.513 41.1767 186.513 40.766V39.87C186.513 39.562 186.462 39.268 186.359 38.988C186.257 38.6987 186.112 38.442 185.925 38.218C185.739 37.9847 185.501 37.8027 185.211 37.672C184.931 37.532 184.605 37.462 184.231 37.462C183.783 37.462 183.391 37.574 183.055 37.798C182.719 38.0127 182.458 38.33 182.271 38.75C182.085 39.17 181.991 39.6927 181.991 40.318C181.991 40.934 182.085 41.4567 182.271 41.886C182.458 42.306 182.719 42.628 183.055 42.852C183.391 43.0667 183.783 43.174 184.231 43.174Z" fill="#3B3B3B"/>
<path d="M136.34 71.24C134.233 71.24 132.62 70.5533 131.5 69.18C130.393 67.8067 129.84 65.8333 129.84 63.26C129.84 60.4733 130.407 58.3267 131.54 56.82C132.687 55.3133 134.32 54.56 136.44 54.56C137.987 54.56 139.24 54.9267 140.2 55.66C141.173 56.38 141.793 57.4133 142.06 58.76H139.04C138.867 58.1467 138.56 57.6933 138.12 57.4C137.693 57.1067 137.127 56.96 136.42 56.96C135.3 56.96 134.447 57.3933 133.86 58.26C133.273 59.1267 132.947 60.4733 132.88 62.3H132.96C133.373 61.6867 133.92 61.22 134.6 60.9C135.28 60.5667 136.027 60.4 136.84 60.4C137.933 60.4 138.88 60.6133 139.68 61.04C140.48 61.4667 141.093 62.0733 141.52 62.86C141.96 63.6467 142.18 64.5733 142.18 65.64C142.18 66.7733 141.94 67.76 141.46 68.6C140.98 69.44 140.3 70.0933 139.42 70.56C138.553 71.0133 137.527 71.24 136.34 71.24ZM136.26 68.84C137.193 68.84 137.933 68.5733 138.48 68.04C139.027 67.4933 139.3 66.7533 139.3 65.82C139.3 64.8867 139 64.1467 138.4 63.6C137.8 63.0533 137 62.78 136 62.78C135.12 62.78 134.393 63.0267 133.82 63.52C133.247 64 132.96 64.6267 132.96 65.4C132.96 66.44 133.267 67.2733 133.88 67.9C134.493 68.5267 135.287 68.84 136.26 68.84ZM145.205 71L152.405 57.5H143.505V54.8H155.905V56.86L148.525 71H145.205ZM163.129 71.24C161.503 71.24 160.196 70.8733 159.209 70.14C158.236 69.3933 157.623 68.3133 157.369 66.9H160.409C160.596 67.5667 160.909 68.06 161.349 68.38C161.789 68.6867 162.383 68.84 163.129 68.84C164.263 68.84 165.096 68.3933 165.629 67.5C166.176 66.6067 166.463 65.18 166.489 63.22H166.389C165.989 63.86 165.463 64.3467 164.809 64.68C164.156 65.0133 163.403 65.18 162.549 65.18C161.496 65.18 160.576 64.9667 159.789 64.54C159.003 64.1133 158.389 63.52 157.949 62.76C157.523 62 157.309 61.1067 157.309 60.08C157.309 58.9867 157.543 58.0267 158.009 57.2C158.489 56.36 159.163 55.7133 160.029 55.26C160.896 54.7933 161.916 54.56 163.089 54.56C165.156 54.56 166.736 55.2533 167.829 56.64C168.936 58.0267 169.489 60.0267 169.489 62.64C169.489 65.4533 168.949 67.5933 167.869 69.06C166.789 70.5133 165.209 71.24 163.129 71.24ZM163.369 62.8C164.263 62.8 164.983 62.56 165.529 62.08C166.089 61.5867 166.363 60.9467 166.349 60.16C166.336 59.2 166.036 58.4267 165.449 57.84C164.863 57.2533 164.103 56.96 163.169 56.96C162.249 56.96 161.516 57.2267 160.969 57.76C160.436 58.2933 160.169 59.02 160.169 59.94C160.169 60.82 160.456 61.52 161.029 62.04C161.603 62.5467 162.383 62.8 163.369 62.8ZM177.314 71.24C175.314 71.24 173.801 70.5333 172.774 69.12C171.747 67.6933 171.234 65.62 171.234 62.9C171.234 60.18 171.747 58.1133 172.774 56.7C173.801 55.2733 175.314 54.56 177.314 54.56C179.314 54.56 180.827 55.2733 181.854 56.7C182.881 58.1133 183.394 60.18 183.394 62.9C183.394 65.62 182.881 67.6933 181.854 69.12C180.827 70.5333 179.314 71.24 177.314 71.24ZM177.314 68.72C178.381 68.72 179.167 68.2467 179.674 67.3C180.194 66.34 180.454 64.8733 180.454 62.9C180.454 60.9133 180.194 59.4467 179.674 58.5C179.167 57.5533 178.381 57.08 177.314 57.08C176.261 57.08 175.474 57.5533 174.954 58.5C174.434 59.4333 174.174 60.9 174.174 62.9C174.174 64.9 174.434 66.3733 174.954 67.32C175.474 68.2533 176.261 68.72 177.314 68.72ZM187.059 71.24C186.539 71.24 186.092 71.06 185.719 70.7C185.359 70.3267 185.179 69.88 185.179 69.36C185.179 68.84 185.359 68.4 185.719 68.04C186.092 67.6667 186.539 67.48 187.059 67.48C187.579 67.48 188.019 67.6667 188.379 68.04C188.752 68.4 188.939 68.84 188.939 69.36C188.939 69.88 188.752 70.3267 188.379 70.7C188.019 71.06 187.579 71.24 187.059 71.24ZM197.231 71.24C195.124 71.24 193.511 70.5533 192.391 69.18C191.284 67.8067 190.731 65.8333 190.731 63.26C190.731 60.4733 191.297 58.3267 192.431 56.82C193.577 55.3133 195.211 54.56 197.331 54.56C198.877 54.56 200.131 54.9267 201.091 55.66C202.064 56.38 202.684 57.4133 202.951 58.76H199.931C199.757 58.1467 199.451 57.6933 199.011 57.4C198.584 57.1067 198.017 56.96 197.311 56.96C196.191 56.96 195.337 57.3933 194.751 58.26C194.164 59.1267 193.837 60.4733 193.771 62.3H193.851C194.264 61.6867 194.811 61.22 195.491 60.9C196.171 60.5667 196.917 60.4 197.731 60.4C198.824 60.4 199.771 60.6133 200.571 61.04C201.371 61.4667 201.984 62.0733 202.411 62.86C202.851 63.6467 203.071 64.5733 203.071 65.64C203.071 66.7733 202.831 67.76 202.351 68.6C201.871 69.44 201.191 70.0933 200.311 70.56C199.444 71.0133 198.417 71.24 197.231 71.24ZM197.151 68.84C198.084 68.84 198.824 68.5733 199.371 68.04C199.917 67.4933 200.191 66.7533 200.191 65.82C200.191 64.8867 199.891 64.1467 199.291 63.6C198.691 63.0533 197.891 62.78 196.891 62.78C196.011 62.78 195.284 63.0267 194.711 63.52C194.137 64 193.851 64.6267 193.851 65.4C193.851 66.44 194.157 67.2733 194.771 67.9C195.384 68.5267 196.177 68.84 197.151 68.84ZM206.095 71L213.295 57.5H204.395V54.8H216.795V56.86L209.415 71H206.095ZM231.926 71.24C230.472 71.24 229.212 71.02 228.146 70.58C227.092 70.1267 226.279 69.44 225.706 68.52C225.146 67.6 224.866 66.44 224.866 65.04V54.8H227.946V64.66C227.946 65.8733 228.272 66.8067 228.926 67.46C229.579 68.1 230.612 68.42 232.026 68.42C233.439 68.42 234.466 68.0867 235.106 67.42C235.759 66.74 236.086 65.8267 236.086 64.68V54.8H239.106V65.08C239.106 67.12 238.472 68.66 237.206 69.7C235.952 70.7267 234.192 71.24 231.926 71.24ZM248.723 71.24C246.576 71.24 244.863 70.7733 243.583 69.84C242.316 68.8933 241.623 67.5867 241.503 65.92H244.643C244.75 66.8533 245.156 67.56 245.863 68.04C246.583 68.52 247.57 68.76 248.823 68.76C249.956 68.76 250.81 68.5733 251.383 68.2C251.97 67.8133 252.263 67.2533 252.263 66.52C252.263 65.9467 252.07 65.4867 251.683 65.14C251.31 64.78 250.716 64.52 249.903 64.36L246.623 63.7C245.156 63.3933 244.05 62.8733 243.303 62.14C242.57 61.4067 242.203 60.46 242.203 59.3C242.203 57.82 242.756 56.66 243.863 55.82C244.97 54.98 246.483 54.56 248.403 54.56C250.336 54.56 251.896 55 253.083 55.88C254.283 56.76 254.963 57.9933 255.123 59.58H251.983C251.583 57.8467 250.33 56.98 248.223 56.98C247.276 56.98 246.53 57.16 245.983 57.52C245.45 57.8667 245.183 58.3667 245.183 59.02C245.183 60.0467 245.916 60.7133 247.383 61.02L250.783 61.7C252.303 62.0067 253.423 62.54 254.143 63.3C254.876 64.0467 255.243 65.04 255.243 66.28C255.243 67.8533 254.67 69.0733 253.523 69.94C252.39 70.8067 250.79 71.24 248.723 71.24ZM257.928 71V54.8H264.148C265.908 54.8 267.428 55.1267 268.708 55.78C269.988 56.4333 270.968 57.3667 271.648 58.58C272.342 59.7933 272.688 61.2333 272.688 62.9C272.688 64.5533 272.342 65.9867 271.648 67.2C270.955 68.4133 269.968 69.3533 268.688 70.02C267.408 70.6733 265.895 71 264.148 71H257.928ZM260.988 68.4H264.148C265.922 68.4 267.275 67.9067 268.208 66.92C269.155 65.9333 269.628 64.5933 269.628 62.9C269.628 61.1933 269.155 59.8533 268.208 58.88C267.275 57.8933 265.922 57.4 264.148 57.4H260.988V68.4ZM282.82 71.28C281.18 71.28 279.74 70.94 278.5 70.26C277.273 69.5667 276.32 68.5933 275.64 67.34C274.973 66.0867 274.64 64.6133 274.64 62.92C274.64 61.2267 274.973 59.7533 275.64 58.5C276.32 57.2467 277.273 56.28 278.5 55.6C279.74 54.9067 281.18 54.56 282.82 54.56C284.126 54.56 285.286 54.78 286.3 55.22C287.313 55.66 288.146 56.3 288.8 57.14C289.453 57.9667 289.873 58.96 290.06 60.12H286.92C286.746 59.2 286.3 58.4933 285.58 58C284.86 57.4933 283.94 57.24 282.82 57.24C281.22 57.24 279.96 57.7467 279.04 58.76C278.12 59.76 277.66 61.1467 277.66 62.92C277.66 64.6933 278.12 66.0867 279.04 67.1C279.96 68.1 281.22 68.6 282.82 68.6C283.94 68.6 284.86 68.3533 285.58 67.86C286.3 67.3533 286.746 66.64 286.92 65.72H290.06C289.873 66.88 289.453 67.88 288.8 68.72C288.146 69.5467 287.313 70.18 286.3 70.62C285.286 71.06 284.126 71.28 282.82 71.28Z" fill="#051912"/>
</g>
<defs>
<filter id="filter0_dddd_234_44" x="0" y="0" width="344" height="233" filterUnits="userSpaceOnUse" color-interpolation-filters="sRGB">
<feFlood flood-opacity="0" result="BackgroundImageFix"/>
<feColorMatrix in="SourceAlpha" type="matrix" values="0 0 0 0 0 0 0 0 0 0 0 0 0 0 0 0 0 0 127 0" result="hardAlpha"/>
<feOffset dy="6"/>
<feGaussianBlur stdDeviation="6.5"/>
<feColorMatrix type="matrix" values="0 0 0 0 0 0 0 0 0 0 0 0 0 0 0 0 0 0 0.2 0"/>
<feBlend mode="normal" in2="BackgroundImageFix" result="effect1_dropShadow_234_44"/>
<feColorMatrix in="SourceAlpha" type="matrix" values="0 0 0 0 0 0 0 0 0 0 0 0 0 0 0 0 0 0 127 0" result="hardAlpha"/>
<feOffset dy="23"/>
<feGaussianBlur stdDeviation="11.5"/>
<feColorMatrix type="matrix" values="0 0 0 0 0 0 0 0 0 0 0 0 0 0 0 0 0 0 0.17 0"/>
<feBlend mode="normal" in2="effect1_dropShadow_234_44" result="effect2_dropShadow_234_44"/>
<feColorMatrix in="SourceAlpha" type="matrix" values="0 0 0 0 0 0 0 0 0 0 0 0 0 0 0 0 0 0 127 0" result="hardAlpha"/>
<feOffset dy="52"/>
<feGaussianBlur stdDeviation="15.5"/>
<feColorMatrix type="matrix" values="0 0 0 0 0 0 0 0 0 0 0 0 0 0 0 0 0 0 0.1 0"/>
<feBlend mode="normal" in2="effect2_dropShadow_234_44" result="effect3_dropShadow_234_44"/>
<feColorMatrix in="SourceAlpha" type="matrix" values="0 0 0 0 0 0 0 0 0 0 0 0 0 0 0 0 0 0 127 0" result="hardAlpha"/>
<feOffset dy="93"/>
<feGaussianBlur stdDeviation="18.5"/>
<feColorMatrix type="matrix" values="0 0 0 0 0 0 0 0 0 0 0 0 0 0 0 0 0 0 0.03 0"/>
<feBlend mode="normal" in2="effect3_dropShadow_234_44" result="effect4_dropShadow_234_44"/>
<feBlend mode="normal" in="SourceGraphic" in2="effect4_dropShadow_234_44" result="shape"/>
</filter>
</defs>
</svg>
