<svg width="85" height="42" viewBox="0 0 85 42" fill="none" xmlns="http://www.w3.org/2000/svg">
<rect x="0.5" y="0.5" width="84" height="41" rx="20.5" stroke="white"/>
<g clip-path="url(#clip0_68_342)">
<path d="M33.792 27.7038C33.429 28.5423 32.9994 29.3141 32.5016 30.0237C31.8231 30.9911 31.2676 31.6607 30.8395 32.0325C30.1758 32.6429 29.4647 32.9555 28.7032 32.9733C28.1566 32.9733 27.4973 32.8177 26.73 32.5022C25.9601 32.1881 25.2525 32.0325 24.6056 32.0325C23.9271 32.0325 23.1994 32.1881 22.4211 32.5022C21.6415 32.8177 21.0136 32.9821 20.5334 32.9984C19.8032 33.0295 19.0754 32.7081 18.3489 32.0325C17.8852 31.6281 17.3052 30.9348 16.6104 29.9526C15.865 28.9037 15.2521 27.6875 14.772 26.3009C14.2578 24.8031 14 23.3528 14 21.9487C14 20.3403 14.3475 18.9531 15.0437 17.7906C15.5908 16.8568 16.3186 16.1203 17.2295 15.5796C18.1405 15.0388 19.1247 14.7633 20.1847 14.7457C20.7647 14.7457 21.5252 14.9251 22.4704 15.2776C23.4129 15.6314 24.0181 15.8108 24.2834 15.8108C24.4817 15.8108 25.154 15.601 26.2937 15.1828C27.3714 14.795 28.281 14.6344 29.0262 14.6977C31.0454 14.8606 32.5624 15.6566 33.5712 17.0906C31.7654 18.1848 30.8721 19.7174 30.8898 21.6834C30.9061 23.2147 31.4617 24.4891 32.5535 25.5009C33.0483 25.9705 33.6009 26.3335 34.2156 26.5912C34.0823 26.9779 33.9416 27.3482 33.792 27.7038ZM29.161 9.48063C29.161 10.6809 28.7225 11.8016 27.8484 12.8389C26.7937 14.072 25.5179 14.7846 24.1343 14.6722C24.1167 14.5282 24.1065 14.3766 24.1065 14.2174C24.1065 13.0651 24.6081 11.832 25.4989 10.8237C25.9436 10.3132 26.5092 9.88872 27.1951 9.5501C27.8796 9.21654 28.5269 9.03208 29.1358 9.00049C29.1536 9.16095 29.161 9.32141 29.161 9.48061V9.48063Z" fill="white"/>
</g>
<path d="M44.896 26V17.536H46.752V26H44.896ZM44.896 16.256V14.336H46.752V16.256H44.896ZM54.5526 26.144C53.5606 26.144 52.67 26.0053 51.8806 25.728C51.102 25.44 50.4353 25.0347 49.8806 24.512C49.326 23.9787 48.8993 23.344 48.6006 22.608C48.3126 21.872 48.1686 21.0613 48.1686 20.176C48.1686 19.2693 48.3126 18.4533 48.6006 17.728C48.8993 16.992 49.326 16.3627 49.8806 15.84C50.4353 15.3173 51.1073 14.9173 51.8966 14.64C52.686 14.352 53.5713 14.208 54.5526 14.208C55.5446 14.208 56.43 14.352 57.2086 14.64C57.9873 14.9173 58.654 15.3173 59.2086 15.84C59.7633 16.3627 60.1846 16.992 60.4726 17.728C60.7713 18.4533 60.9206 19.2693 60.9206 20.176C60.9206 21.072 60.7713 21.888 60.4726 22.624C60.1846 23.3493 59.7633 23.9787 59.2086 24.512C58.654 25.0347 57.982 25.44 57.1926 25.728C56.414 26.0053 55.534 26.144 54.5526 26.144ZM54.5686 24.576C55.4753 24.576 56.254 24.4 56.9046 24.048C57.566 23.696 58.078 23.1893 58.4406 22.528C58.8033 21.8667 58.9846 21.0827 58.9846 20.176C58.9846 19.472 58.878 18.8533 58.6646 18.32C58.462 17.776 58.1686 17.312 57.7846 16.928C57.4006 16.544 56.9313 16.256 56.3766 16.064C55.8326 15.8613 55.2246 15.76 54.5526 15.76C53.646 15.76 52.8566 15.936 52.1846 16.288C51.5233 16.64 51.0113 17.1467 50.6486 17.808C50.2966 18.4587 50.1206 19.248 50.1206 20.176C50.1206 20.8587 50.222 21.472 50.4246 22.016C50.638 22.56 50.9366 23.024 51.3206 23.408C51.7046 23.792 52.1686 24.0853 52.7126 24.288C53.2566 24.48 53.8753 24.576 54.5686 24.576ZM67.2943 26.144C66.0463 26.144 65.0223 25.984 64.2223 25.664C63.4329 25.3333 62.8463 24.8853 62.4622 24.32C62.0783 23.744 61.8703 23.0827 61.8383 22.336H63.8543C63.8863 22.8693 64.0356 23.3173 64.3023 23.68C64.5796 24.0427 64.9743 24.3147 65.4863 24.496C65.9983 24.6773 66.6223 24.768 67.3583 24.768C68.4143 24.768 69.2036 24.5973 69.7263 24.256C70.2489 23.904 70.5103 23.4293 70.5103 22.832C70.5103 22.448 70.4303 22.144 70.2703 21.92C70.1209 21.6853 69.8969 21.504 69.5983 21.376C69.2996 21.2373 68.9316 21.1307 68.4943 21.056C68.0676 20.9707 67.5769 20.8907 67.0223 20.816C66.2756 20.72 65.6036 20.608 65.0063 20.48C64.4089 20.3413 63.8969 20.1547 63.4703 19.92C63.0543 19.6853 62.7343 19.376 62.5103 18.992C62.2863 18.608 62.1743 18.128 62.1743 17.552C62.1743 16.8373 62.3769 16.2347 62.7823 15.744C63.1876 15.2427 63.7583 14.864 64.4943 14.608C65.2409 14.3413 66.1209 14.208 67.1343 14.208C68.1369 14.208 68.9956 14.3467 69.7103 14.624C70.4356 14.8907 70.9956 15.28 71.3903 15.792C71.7849 16.304 72.0036 16.9173 72.0463 17.632H70.0943C70.0623 17.1627 69.9183 16.7733 69.6623 16.464C69.4169 16.1547 69.0703 15.9307 68.6223 15.792C68.1849 15.6427 67.6623 15.568 67.0543 15.568C66.4356 15.568 65.9076 15.6427 65.4703 15.792C65.0436 15.9307 64.7129 16.1333 64.4783 16.4C64.2543 16.6667 64.1423 16.9813 64.1423 17.344C64.1423 17.8027 64.2649 18.1493 64.5103 18.384C64.7556 18.608 65.1289 18.7733 65.6302 18.88C66.1316 18.9867 66.7663 19.0933 67.5343 19.2C68.2916 19.2853 68.9743 19.3973 69.5823 19.536C70.1903 19.6747 70.7076 19.8667 71.1343 20.112C71.5716 20.3573 71.9076 20.688 72.1423 21.104C72.3769 21.5093 72.4943 22.0373 72.4943 22.688C72.4943 23.4027 72.2916 24.0213 71.8863 24.544C71.4916 25.056 70.9103 25.4507 70.1423 25.728C69.3743 26.0053 68.4249 26.144 67.2943 26.144Z" fill="white"/>
<defs>
<clipPath id="clip0_68_342">
<rect width="24" height="24" fill="white" transform="translate(12 9)"/>
</clipPath>
</defs>
</svg>
