<svg width="80" height="80" viewBox="0 0 80 80" fill="none" xmlns="http://www.w3.org/2000/svg">
<rect width="80" height="80" rx="40" fill="#D4F100"/>
<mask id="mask0_46_90" style="mask-type:alpha" maskUnits="userSpaceOnUse" x="20" y="20" width="40" height="40">
<rect x="20" y="20" width="40" height="40" fill="#D9D9D9"/>
</mask>
<g mask="url(#mask0_46_90)">
<path d="M39.4967 56.9459L47.1833 36.5672H51.1192L58.7987 56.9459H55.405L53.6904 52.3534H44.5642L42.8496 56.9459H39.4967ZM26.5892 51.9943L24.3692 49.7743L32.7117 41.4384C31.39 40.0709 30.2706 38.6715 29.3533 37.2401C28.4361 35.8084 27.7108 34.3543 27.1775 32.8776H30.6279C31.0651 33.9465 31.6287 34.9897 32.3187 36.0072C33.0087 37.0247 33.889 38.0858 34.9596 39.1905C36.1037 37.9916 37.1896 36.4948 38.2171 34.7001C39.2449 32.9054 39.9896 31.1868 40.4512 29.5443H21.3346V26.3809H33.2792V23.0476H36.4421V26.3809H48.3867V29.5443H43.7496C43.2312 31.6265 42.3607 33.7719 41.1379 35.9805C39.9149 38.1891 38.5887 40.0237 37.1596 41.4843L40.9279 45.3255L39.7017 48.643L34.9117 43.7034L26.5892 51.9943ZM45.6142 49.468H52.6371L49.1254 39.9651L45.6142 49.468Z" fill="#051912"/>
</g>
</svg>
