<svg width="80" height="80" viewBox="0 0 80 80" fill="none" xmlns="http://www.w3.org/2000/svg">
<rect width="80" height="80" rx="40" fill="#D4F100"/>
<mask id="mask0_46_82" style="mask-type:alpha" maskUnits="userSpaceOnUse" x="20" y="20" width="40" height="40">
<rect x="20" y="20" width="40" height="40" fill="#D9D9D9"/>
</mask>
<g mask="url(#mask0_46_82)">
<path d="M26.3875 56.9225V33.1913H31.8217V29.6558C31.8217 27.3814 32.6179 25.4447 34.2104 23.8458C35.8029 22.247 37.7332 21.4475 40.0012 21.4475C42.2696 21.4475 44.1996 22.247 45.7912 23.8458C47.3826 25.4447 48.1783 27.3814 48.1783 29.6558V33.1913H53.6192V56.9225H26.3875ZM40.0046 48.31C40.8996 48.31 41.6643 47.9972 42.2987 47.3717C42.9329 46.7461 43.25 45.9942 43.25 45.1158C43.25 44.2547 42.9312 43.4885 42.2937 42.8171C41.6565 42.1457 40.8904 41.81 39.9954 41.81C39.1004 41.81 38.3357 42.1457 37.7012 42.8171C37.0671 43.4885 36.75 44.2593 36.75 45.1296C36.75 45.9999 37.0687 46.7475 37.7062 47.3725C38.3435 47.9975 39.1096 48.31 40.0046 48.31ZM34.9779 33.1913H45.0221V29.6575C45.0221 28.25 44.5358 27.057 43.5633 26.0783C42.5908 25.0997 41.4047 24.6104 40.005 24.6104C38.605 24.6104 37.4172 25.0997 36.4417 26.0783C35.4658 27.057 34.9779 28.25 34.9779 29.6575V33.1913Z" fill="#051912"/>
</g>
</svg>
