<svg width="80" height="80" viewBox="0 0 80 80" fill="none" xmlns="http://www.w3.org/2000/svg">
<rect width="80" height="80" rx="40" fill="#D4F100"/>
<g clip-path="url(#clip0_13_237)">
<path d="M26.6689 56.7134C25.8702 56.6159 25.128 56.605 24.4271 56.4254C21.8083 55.7584 20.0164 53.359 20.0066 50.5445C19.9936 46.8955 20.0033 43.2464 20.0033 39.5963C20.0033 35.0723 20.0001 30.5483 20.0044 26.0243C20.0077 23.0893 21.9789 20.669 24.8249 20.1094C25.2345 20.0295 25.6594 20.0054 26.0778 20.0054C35.3644 19.9999 44.6499 19.9988 53.9365 20.0021C56.914 20.0032 59.3035 21.935 59.8827 24.8152C59.9686 25.2401 59.9957 25.6837 59.9957 26.1185C60.0022 34.251 60.0023 42.3824 60.0001 50.5149C60.0001 53.992 57.4627 56.5831 54.0191 56.6323C53.9148 56.6334 53.8094 56.6433 53.6659 56.6521C53.6659 57.1766 53.6681 57.6793 53.6659 58.1809C53.6594 59.2727 52.9748 59.9835 51.8903 59.9911C50.1821 60.0032 48.4739 60.0032 46.7656 59.9911C45.6985 59.9835 45.0226 59.2913 44.9998 58.2126C44.9889 57.7078 44.9976 57.2029 44.9976 56.6652H35.3437C35.3437 57.1361 35.3448 57.6092 35.3437 58.0823C35.3394 59.3877 34.7461 59.9911 33.454 59.9944C31.8273 59.9977 30.2006 59.9977 28.5738 59.9944C27.3361 59.9922 26.6722 59.3154 26.67 58.0626C26.67 57.6015 26.67 57.1394 26.67 56.7156L26.6689 56.7134ZM37.9984 40.7561C38.0126 40.7561 38.0256 40.7561 38.0397 40.7561C38.0397 41.411 37.9876 42.0714 38.0528 42.7197C38.1321 43.5115 38.6146 44.0349 39.3731 44.2671C40.7651 44.6942 41.9713 43.7929 42.0017 42.2904C42.0234 41.2391 41.9963 40.1866 42.018 39.1342C42.0213 38.9853 42.1397 38.7761 42.2658 38.7005C43.874 37.7445 44.7031 36.0678 44.4641 34.205C44.2294 32.3761 42.9036 30.8527 41.1563 30.4059C39.3416 29.9416 37.4812 30.5965 36.3891 32.0848C34.8276 34.2104 35.3752 37.0841 37.6475 38.5877C37.9267 38.7728 38.0191 38.9634 38.0039 39.2798C37.9811 39.7705 37.9974 40.2633 37.9974 40.755L37.9984 40.7561Z" fill="#404040"/>
</g>
<defs>
<clipPath id="clip0_13_237">
<rect width="40" height="40" fill="white" transform="translate(20 20)"/>
</clipPath>
</defs>
</svg>
