<svg width="80" height="80" viewBox="0 0 80 80" fill="none" xmlns="http://www.w3.org/2000/svg">
<rect width="80" height="80" rx="40" fill="#D4F100"/>
<mask id="mask0_46_38" style="mask-type:alpha" maskUnits="userSpaceOnUse" x="20" y="20" width="40" height="40">
<rect x="20" y="20" width="40" height="40" fill="#D9D9D9"/>
</mask>
<g mask="url(#mask0_46_38)">
<path d="M24.7113 43.7329V22.6692H55.2858V43.7329H24.7113ZM40.0067 37.6371C41.2431 37.6371 42.2918 37.2043 43.1529 36.3388C44.014 35.4735 44.4446 34.4227 44.4446 33.1863C44.4446 31.9543 44.0118 30.9067 43.1463 30.0434C42.2807 29.18 41.2297 28.7484 39.9933 28.7484C38.7569 28.7484 37.7082 29.1821 36.8471 30.0496C35.986 30.9174 35.5554 31.9672 35.5554 33.1992C35.5554 34.4356 35.9882 35.4843 36.8538 36.3454C37.7193 37.2065 38.7703 37.6371 40.0067 37.6371ZM40 57.3309L46.1208 51.22L43.9008 49.01L41.5783 51.3325V46.1213H38.4217V51.3325L36.0992 49.01L33.8792 51.22L40 57.3309ZM27.7446 40.6925H31.6333C31.6333 39.6136 31.2561 38.6959 30.5017 37.9392C29.7469 37.1822 28.8279 36.8038 27.7446 36.8038V40.6925ZM48.3567 40.6925H52.2454V36.8038C51.1665 36.8038 50.2486 37.1822 49.4917 37.9392C48.735 38.6959 48.3567 39.6136 48.3567 40.6925ZM52.2454 29.5817V25.6925H48.3567C48.3567 26.7759 48.735 27.6949 49.4917 28.4496C50.2486 29.2043 51.1665 29.5817 52.2454 29.5817ZM27.7446 29.5817C28.8279 29.5817 29.7469 29.2043 30.5017 28.4496C31.2561 27.6949 31.6333 26.7759 31.6333 25.6925H27.7446V29.5817Z" fill="#051912"/>
</g>
</svg>
