<svg width="80" height="80" viewBox="0 0 80 80" fill="none" xmlns="http://www.w3.org/2000/svg">
<rect width="80" height="80" rx="40" fill="#D4F100"/>
<mask id="mask0_46_8" style="mask-type:alpha" maskUnits="userSpaceOnUse" x="20" y="20" width="40" height="40">
<rect x="20" y="20" width="40" height="40" fill="#D9D9D9"/>
</mask>
<g mask="url(#mask0_46_8)">
<path d="M39.99 38.3099C44.4422 38.3099 48.1046 37.6243 50.9771 36.2529C53.8496 34.8815 55.2858 33.3006 55.2858 31.5104C55.2858 29.6951 53.8496 28.1086 50.9771 26.7508C48.1046 25.393 44.4422 24.7141 39.99 24.7141C35.5422 24.7141 31.8854 25.393 29.0196 26.7508C26.1538 28.1086 24.7208 29.6951 24.7208 31.5104C24.7208 33.3006 26.1538 34.8815 29.0196 36.2529C31.8854 37.6243 35.5422 38.3099 39.99 38.3099ZM40 42.377C41.4761 42.377 43.0983 42.2479 44.8667 41.9895C46.6353 41.7315 48.294 41.3356 49.8429 40.802C51.3918 40.2684 52.6867 39.5909 53.7275 38.7695C54.7683 37.9484 55.2887 36.977 55.2887 35.8554V40.2679C55.2887 41.3937 54.7683 42.3673 53.7275 43.1887C52.6867 44.0098 51.3918 44.6861 49.8429 45.2174C48.294 45.7491 46.6353 46.144 44.8667 46.402C43.0983 46.6604 41.4761 46.7895 40 46.7895C38.5381 46.7895 36.9193 46.6604 35.1438 46.402C33.3682 46.144 31.706 45.7445 30.1571 45.2037C28.6082 44.6631 27.3133 43.9822 26.2725 43.1608C25.2317 42.3397 24.7113 41.3754 24.7113 40.2679V35.8554C24.7113 36.9629 25.2317 37.9261 26.2725 38.7449C27.3133 39.5641 28.6082 40.244 30.1571 40.7845C31.706 41.3254 33.3682 41.7259 35.1438 41.9862C36.9193 42.2467 38.5381 42.377 40 42.377ZM40 50.8566C41.4761 50.8566 43.0983 50.7274 44.8667 50.4691C46.6353 50.2108 48.294 49.8142 49.8429 49.2795C51.3918 48.7448 52.6867 48.0669 53.7275 47.2458C54.7683 46.4244 55.2887 45.4508 55.2887 44.3249V48.7537C55.2887 49.8754 54.7683 50.8469 53.7275 51.6683C52.6867 52.4894 51.3918 53.1667 49.8429 53.7004C48.294 54.234 46.6353 54.6299 44.8667 54.8883C43.0983 55.1466 41.4761 55.2758 40 55.2758C38.5381 55.2758 36.9193 55.1455 35.1438 54.8849C33.3682 54.6244 31.706 54.2238 30.1571 53.6833C28.6082 53.1424 27.3133 52.4626 26.2725 51.6437C25.2317 50.8245 24.7113 49.8612 24.7113 48.7537V44.3249C24.7113 45.4324 25.2317 46.3967 26.2725 47.2179C27.3133 48.0392 28.6082 48.7202 30.1571 49.2608C31.706 49.8013 33.3682 50.2024 35.1438 50.4641C36.9193 50.7258 38.5381 50.8566 40 50.8566Z" fill="#1C1B1F"/>
</g>
</svg>
