<svg width="250" height="292" viewBox="0 0 250 292" fill="none" xmlns="http://www.w3.org/2000/svg">
<path d="M161.438 292C159.151 290.008 156.505 288.31 154.628 285.985C123.858 247.771 95.9144 207.662 73.8769 163.696C63.7807 143.548 55.4397 122.734 50.9426 100.498C41.5126 53.9053 63.9472 4.11594 105.293 -19.8819C120.367 -28.6328 136.472 -34.0269 153.865 -35.4939C154.474 -35.5452 155.07 -35.827 155.672 -36C161.226 -36 166.774 -36 172.328 -36C178.504 -34.9366 184.743 -34.1742 190.836 -32.7713C234.994 -22.6045 269.902 14.8272 277.506 59.4659C281.081 80.4336 278.262 100.639 271.875 120.607C262.291 150.569 247.582 178.052 231.214 204.721C213.841 233.03 194.507 259.962 173.571 285.741C171.623 288.143 168.914 289.931 166.556 292H161.431H161.438ZM163.904 266.977C164.903 265.792 165.666 264.946 166.364 264.05C182.738 242.967 198.197 221.237 212.361 198.61C228.402 172.985 243.066 146.642 252.714 117.827C258.146 101.613 261.471 85.0845 259.357 67.8261C252.688 13.4434 202.354 -24.315 148.241 -15.468C95.7351 -6.89 60.1355 43.5336 69.6104 95.8406C73.1979 115.649 80.674 134.086 89.4697 152.03C107.337 188.488 129.97 221.948 154.224 254.363C157.338 258.521 160.541 262.608 163.904 266.984V266.977Z" fill="#D4F100"/>
<path d="M173.603 136.251C173.603 139.339 173.635 142.523 173.597 145.7C173.52 151.626 169.465 155.982 164.045 156.015C158.644 156.053 154.487 151.658 154.403 145.784C154.359 142.6 154.397 139.41 154.397 136.014C146.312 134.406 138.868 131.664 132.18 127.116C119.438 118.455 111.232 106.622 107.843 91.5997C107.318 89.2678 106.453 88.6528 104.268 88.7937C101.718 88.9603 99.1432 88.9411 96.5871 88.7937C91.1866 88.4926 87.0546 84.098 87.1955 78.9665C87.3429 73.7134 91.5133 69.7543 97.0419 69.6518C99.6044 69.607 102.167 69.5558 104.723 69.6711C106.504 69.7543 107.279 69.2419 107.721 67.3392C112.526 46.647 124.992 32.5533 144.781 24.9554C147.837 23.7831 151.085 23.0976 154.403 22.1431C154.403 18.9015 154.365 15.7048 154.41 12.5081C154.5 6.58873 158.612 2.34779 164.122 2.41185C169.497 2.47591 173.494 6.6656 173.597 12.4248C173.654 15.6215 173.609 18.8183 173.609 22.252C175.743 22.7837 177.818 23.1809 179.817 23.8151C201.163 30.6314 214.68 44.8981 220.125 66.6345C220.708 68.9728 221.438 69.8889 223.847 69.6839C226.179 69.4789 228.543 69.607 230.888 69.6454C236.583 69.7351 240.824 73.8287 240.817 79.1908C240.817 84.3542 236.653 88.5631 231.189 88.7937C228.421 88.909 225.622 88.6528 222.873 88.9155C221.983 88.9987 220.651 90.0622 220.446 90.9078C214.347 115.553 198.562 130.165 173.609 136.232L173.603 136.251ZM164.045 40.8365C142.975 40.8237 125.665 57.9925 125.588 78.9858C125.505 100.146 142.84 117.609 163.949 117.635C184.936 117.66 202.335 100.363 202.412 79.4086C202.489 58.1975 185.237 40.8558 164.045 40.8365Z" fill="#D4F100"/>
</svg>
