<svg width="227" height="220" viewBox="0 0 227 220" fill="none" xmlns="http://www.w3.org/2000/svg">
<g clip-path="url(#clip0_41_7)">
<path d="M0 181.549C0 174.85 0 168.15 0 161.451C0.194277 160.486 0.502441 159.528 0.569434 158.557C2.23754 134.514 8.61519 111.743 20.2986 90.7141C47.0888 42.5065 87.6258 12.9429 141.956 2.65959C148.394 1.44033 154.953 0.870898 161.451 0C168.15 0 174.85 0 181.549 0C182.413 0.187578 183.264 0.495742 184.135 0.549336C205.063 1.94277 225.134 6.91359 243.939 16.1317C296.729 42.0175 328.992 83.8608 340.294 141.648C341.573 148.173 342.116 154.846 343 161.451V181.549C342.806 182.514 342.498 183.472 342.431 184.443C340.762 208.366 334.438 231.036 322.855 251.984C296.159 300.259 255.662 329.87 201.379 340.294C194.84 341.546 188.161 342.116 181.556 343H161.458C160.594 342.812 159.743 342.511 158.872 342.451C134.828 340.823 112.051 334.485 91.0022 322.842C42.7209 296.139 13.1104 255.642 2.70648 201.352C1.45373 194.813 0.884297 188.154 0 181.549ZM300.118 171.56C300.212 100.783 242.291 42.8415 171.48 42.8884C100.703 42.9286 43.2368 100.307 42.8884 171.279C42.54 241.922 100.348 299.897 171.359 300.125C242.056 300.346 300.031 242.472 300.118 171.567V171.56ZM168.874 14.3497C142.713 14.879 118.482 21.2834 95.5376 33.8713C103.516 36.6581 104.937 39.4383 102.009 46.6266C123.065 35.0235 145.36 29.1349 169.484 28.6191C162.965 23.8894 162.865 19.8967 168.874 14.3497ZM33.965 95.9261C23.5746 110.102 12.1859 153.124 14.6512 167.554C16.8954 166.569 19.3674 164.566 21.7055 164.714C24.1708 164.868 26.5021 167.072 28.6794 168.264C29.0545 145.279 35.1039 123.071 46.6266 101.962C39.6058 104.963 36.9194 103.583 33.965 95.9261ZM95.417 309.082C118.596 321.73 142.834 328.161 168.78 328.644C162.262 323.11 163.669 318.414 169.222 314.347C145.299 313.966 123.065 307.889 101.761 296.293C105.091 303.213 103.322 306.69 95.417 309.089V309.082ZM173.892 28.666C197.567 29.0679 219.674 35.0302 239.832 45.9767C240.033 43.3037 239.47 40.2489 240.636 38.1587C241.775 36.1155 244.669 35.0503 246.846 33.5162C224.39 21.2834 200.173 14.8388 174.193 14.3698C180.082 20.0173 180.015 23.2664 173.892 28.6727V28.666ZM328.644 168.794C328.155 142.794 321.73 118.543 309.504 96.2276C307.903 98.4651 306.838 101.312 304.821 102.391C302.698 103.53 299.669 102.974 297.995 103.094C301.666 113.103 306.04 123.795 309.484 134.775C312.954 145.835 314.207 157.371 314.321 169.169C319.693 162.958 322.882 162.892 328.637 168.8L328.644 168.794ZM45.1661 240.361C41.3208 229.864 36.5643 219.232 33.6167 208.125C30.6757 197.051 29.5637 185.495 27.7616 174.83C23.6549 179.928 20.3991 180.082 14.5909 174.649C13.3314 194.512 24.7938 236.918 34.1392 246.947C36.1825 239.899 39.2239 238.238 45.1661 240.361ZM314.334 173.443C313.972 197.593 307.93 219.681 296.641 240.602C304.158 238.452 306.563 239.758 308.981 247.014C318.923 234.64 329.414 195.49 328.456 174.354C323.07 180.142 319.117 180.042 314.341 173.443H314.334ZM173.778 314.354C180.042 319.519 180.109 322.708 174.314 328.59C198.846 328.342 237.675 317.784 246.437 309.316C244.461 307.869 241.641 306.771 240.576 304.747C239.457 302.624 240.02 299.609 239.859 297.157C205.679 311.5 199.134 313.222 173.778 314.361V314.354ZM244.602 48.7033C265.396 61.3849 281.675 77.6372 293.52 97.1186C294.933 94.9011 295.871 91.8932 297.887 90.7007C299.998 89.448 303.146 89.9303 305.766 89.6623C292.562 68.1377 274.849 50.3915 252.547 36.772C254.631 44.7642 252.587 48.0401 244.609 48.71L244.602 48.7033ZM48.7435 98.3579C61.3782 77.577 77.6774 61.3648 97.0717 49.4804C94.8341 48.0401 91.8329 47.0821 90.6404 45.0656C89.4078 42.9688 89.9303 39.8403 89.6891 37.2209C68.0909 50.492 50.3647 68.178 36.7117 90.5667C44.523 88.2622 47.9932 90.4261 48.7435 98.3646V98.3579ZM36.7184 252.46C50.4116 274.842 68.1244 292.582 89.669 305.739C89.9303 303.032 89.4078 299.911 90.6672 297.914C91.9602 295.864 95.0016 294.926 97.2258 293.533C77.5167 281.655 61.3983 265.269 48.7368 244.722C47.9999 252.607 44.6168 254.711 36.7251 252.46H36.7184ZM294.109 244.917C281.675 265.396 265.329 281.615 245.908 293.513C248.146 294.953 251.154 295.904 252.346 297.921C253.586 300.018 253.063 303.146 253.291 305.652C272.444 294.987 301.579 265.537 305.652 252.52C298.772 254.878 295.228 252.661 294.102 244.91L294.109 244.917Z" fill="#D4F100"/>
<path d="M217.859 206.517C212.359 211.126 207.461 215.675 202.109 219.594C196.193 223.921 189.313 226.467 182.078 227.546C179.05 227.994 178.615 229.24 178.641 231.867C178.755 244.146 178.702 256.426 178.688 268.706C178.688 275.204 176.049 278.754 171.346 278.634C166.73 278.513 164.305 275.123 164.305 268.746C164.298 256.245 164.245 243.738 164.352 231.237C164.372 228.872 163.702 228.061 161.284 227.633C148.066 225.295 137.086 218.877 128.243 208.794C127.52 207.97 126.796 207.133 125.898 206.101C122.542 208.024 119.28 209.893 116.017 211.776C107.516 216.679 99.0278 221.597 90.5131 226.487C89.3609 227.15 88.1684 227.82 86.9089 228.215C83.6799 229.24 80.1628 227.74 78.6153 224.839C77.0879 221.965 77.6506 218.562 80.203 216.338C81.3687 215.326 82.7353 214.522 84.0819 213.738C95.5509 207.086 107.033 200.461 118.737 193.694C112.989 178.943 112.902 164.251 118.737 149.366C117.591 148.682 116.58 148.053 115.541 147.456C104.441 141.039 93.3067 134.674 82.2463 128.183C77.041 125.128 76.2773 119.48 80.404 116.03C82.8894 113.96 86.0113 113.913 89.7494 116.064C99.6107 121.725 109.452 127.439 119.3 133.133C121.417 134.353 123.54 135.552 125.161 136.47C130.601 131.921 135.565 127.298 141.012 123.333C146.934 119.018 153.827 116.533 161.063 115.421C163.89 114.985 164.372 113.826 164.352 111.307C164.245 98.9139 164.285 86.527 164.325 74.1335C164.325 72.586 164.459 70.9982 164.821 69.4976C165.531 66.5366 168.459 64.3861 171.487 64.3794C174.495 64.3727 177.476 66.5165 178.172 69.4708C178.554 71.0786 178.668 72.7802 178.675 74.4416C178.715 86.8352 178.762 99.2287 178.641 111.616C178.615 114.141 179.392 114.945 181.904 115.407C195.209 117.859 206.289 124.311 215.085 134.627C215.661 135.304 216.244 135.967 217.021 136.865C218.086 136.289 219.152 135.753 220.183 135.157C231.197 128.799 242.197 122.442 253.204 116.071C256.191 114.342 259.253 113.619 262.288 115.816C266.763 119.058 266.086 125.041 260.774 128.163C249.814 134.607 238.78 140.918 227.773 147.289C226.641 147.945 225.509 148.609 224.25 149.339C230.004 164.131 230.078 178.715 224.263 193.581C225.301 194.23 226.286 194.887 227.311 195.476C238.412 201.901 249.539 208.279 260.613 214.743C265.202 217.423 266.488 221.684 264.023 225.375C261.886 228.571 258.107 229.488 254.255 227.499C251.087 225.864 248.045 223.982 244.957 222.193C235.786 216.894 226.614 211.588 217.852 206.523L217.859 206.517ZM214.368 171.627C214.442 148.093 195.255 128.759 171.708 128.638C148.173 128.518 128.799 147.664 128.632 171.212C128.464 194.874 147.785 214.341 171.453 214.368C194.994 214.395 214.288 195.168 214.362 171.627H214.368Z" fill="#D4F100"/>
<path d="M171.594 178.554C167.842 178.615 164.553 175.459 164.446 171.681C164.332 167.929 167.454 164.613 171.239 164.452C175.111 164.285 178.548 167.594 178.554 171.493C178.561 175.258 175.372 178.501 171.594 178.561V178.554Z" fill="#D4F100"/>
</g>
<defs>
<clipPath id="clip0_41_7">
<rect width="343" height="343" fill="white"/>
</clipPath>
</defs>
</svg>
