<svg width="229" height="214" viewBox="0 0 229 214" fill="none" xmlns="http://www.w3.org/2000/svg">
<g clip-path="url(#clip0_44_34)">
<path d="M0 250.203C0 198.226 0 146.196 0 94.2188C0.157031 93.8001 0.366406 93.4336 0.471094 93.0149C3.08828 82.5461 10.7828 76.3696 21.618 76.3696C88.6703 76.3172 155.723 76.3172 222.827 76.3696C235.652 76.3696 244.445 85.3204 244.498 98.1969C244.498 108.927 244.498 119.658 244.498 130.388C244.498 131.226 244.445 132.063 244.393 133.11C243.241 133.11 242.299 133.11 241.357 133.11C230.103 133.11 218.849 133.006 207.595 133.11C182.47 133.372 164.15 156.508 169.594 180.952C173.52 198.488 188.909 211.259 206.915 211.521C218.43 211.731 229.946 211.574 241.462 211.574C242.404 211.574 243.346 211.574 244.236 211.574C244.393 212.097 244.498 212.306 244.498 212.568C244.498 224.502 244.759 236.489 244.393 248.423C244.131 256.432 239.839 262.347 232.563 265.959C230.731 266.848 228.69 267.372 226.701 268.052C157.084 268.052 87.4664 268.052 17.8492 268.052C14.918 266.796 11.8297 265.906 9.16016 264.231C3.92578 261.038 1.46562 255.856 0 250.203Z" fill="#D4F100"/>
<path d="M134 0C141.38 1.98906 142.48 8.375 144.469 14.6039C141.066 14.6039 137.978 14.5516 134.837 14.6039C120.757 15.0227 109.66 26.2242 109.398 40.357C109.294 47.0047 109.398 53.6 109.398 60.6141C108.352 60.6141 107.409 60.6141 106.52 60.6141C83.75 60.6141 60.9804 60.5617 38.2109 60.6664C36.0648 60.6664 35.175 59.9859 34.5468 57.9969C33.5 54.5945 32.0867 51.2969 30.9351 47.9469C28.6843 41.5609 31.3015 36.0125 37.6351 33.7094C68.0468 22.6125 98.5109 11.568 128.923 0.471094C129.237 0.366406 129.498 0.157031 129.812 0C131.226 0 132.587 0 134 0Z" fill="#D4F100"/>
<path d="M268 190.008C266.063 194.509 262.609 195.975 257.793 195.923C240.886 195.713 223.979 195.975 207.072 195.766C194.195 195.609 184.093 184.826 184.25 171.949C184.407 159.282 194.562 148.97 207.491 148.813C224.921 148.604 242.352 148.761 259.782 148.761C264.022 148.761 266.482 151.221 267.948 154.937C268 166.61 268 178.335 268 190.008ZM207.857 180.115C212.149 180.062 215.656 176.608 215.604 172.316C215.604 168.076 212.045 164.516 207.805 164.464C203.512 164.412 199.848 168.18 199.901 172.473C200.058 176.765 203.565 180.167 207.857 180.115Z" fill="#D4F100"/>
<path d="M125.154 60.4046C125.154 53.3905 124.997 46.5859 125.206 39.8335C125.416 34.2851 130.022 30.307 135.989 30.307C149.441 30.2546 162.841 30.307 176.294 30.307C185.977 30.307 195.661 30.307 205.344 30.307C212.516 30.307 216.703 34.5468 216.755 41.6655C216.755 47.8421 216.755 54.0187 216.755 60.457C186.187 60.4046 155.827 60.4046 125.154 60.4046Z" fill="#D4F100"/>
</g>
<defs>
<clipPath id="clip0_44_34">
<rect width="268" height="268" fill="white"/>
</clipPath>
</defs>
</svg>
