<svg width="80" height="80" viewBox="0 0 80 80" fill="none" xmlns="http://www.w3.org/2000/svg">
<rect width="80" height="80" rx="40" fill="#D4F100"/>
<mask id="mask0_46_8" style="mask-type:alpha" maskUnits="userSpaceOnUse" x="20" y="20" width="40" height="40">
<rect x="20" y="20" width="40" height="40" fill="#D9D9D9"/>
</mask>
<g mask="url(#mask0_46_8)">
<path d="M40 56.9459C37.6475 56.9459 35.4408 56.5018 33.38 55.6134C31.3189 54.7251 29.5233 53.5148 27.9933 51.9826C26.4631 50.4501 25.2574 48.6487 24.3763 46.5784C23.4949 44.5084 23.0542 42.2972 23.0542 39.9447C23.0542 37.585 23.4949 35.38 24.3763 33.3297C25.2574 31.2791 26.4631 29.49 27.9933 27.9622C29.5233 26.4344 31.3189 25.2334 33.38 24.3593C35.4408 23.4848 37.6475 23.0476 40 23.0476C42.3594 23.0476 44.5679 23.4848 46.6254 24.3593C48.6829 25.2334 50.4767 26.4344 52.0067 27.9622C53.5369 29.49 54.7438 31.2791 55.6271 33.3297C56.5107 35.38 56.9525 37.585 56.9525 39.9447C56.9525 42.2972 56.5107 44.5084 55.6271 46.5784C54.7438 48.6487 53.5369 50.4501 52.0067 51.9826C50.4767 53.5148 48.6829 54.7251 46.6254 55.6134C44.5679 56.5018 42.3594 56.9459 40 56.9459ZM39.9867 53.8272C40.8533 52.8361 41.5911 51.7322 42.2 50.5155C42.8089 49.2989 43.31 47.8964 43.7033 46.308H36.3208C36.6869 47.8222 37.1728 49.2015 37.7783 50.4459C38.3839 51.6904 39.12 52.8175 39.9867 53.8272ZM36.2179 53.2718C35.5793 52.2757 35.0364 51.2058 34.5892 50.0622C34.1419 48.9189 33.7656 47.6675 33.46 46.308H27.7008C28.6575 48.0769 29.7963 49.5044 31.1171 50.5905C32.4382 51.6764 34.1385 52.5701 36.2179 53.2718ZM43.7867 53.2439C45.6253 52.6577 47.2757 51.7697 48.7379 50.5797C50.1999 49.3897 51.3836 47.9658 52.2892 46.308H46.5646C46.2404 47.6489 45.8561 48.8911 45.4117 50.0347C44.9669 51.178 44.4253 52.2477 43.7867 53.2439ZM26.6829 43.5601H32.9321C32.8488 42.8751 32.7956 42.2454 32.7725 41.6709C32.7492 41.0968 32.7375 40.5214 32.7375 39.9447C32.7375 39.2872 32.7538 38.6915 32.7863 38.1576C32.8188 37.6237 32.8767 37.0419 32.96 36.4122H26.6829C26.5071 37.0397 26.3844 37.6164 26.315 38.1422C26.2456 38.6677 26.2108 39.2686 26.2108 39.9447C26.2108 40.6139 26.2456 41.2269 26.315 41.7839C26.3844 42.3408 26.5071 42.9329 26.6829 43.5601ZM35.7654 43.5601H44.2592C44.3564 42.8009 44.419 42.1527 44.4471 41.6155C44.4751 41.0783 44.4892 40.5214 44.4892 39.9447C44.4892 39.3797 44.4751 38.8396 44.4471 38.3243C44.419 37.8087 44.3564 37.1714 44.2592 36.4122H35.7654C35.6635 37.1714 35.5964 37.8087 35.5642 38.3243C35.5317 38.8396 35.5154 39.3797 35.5154 39.9447C35.5154 40.5214 35.5317 41.0783 35.5642 41.6155C35.5964 42.1527 35.6635 42.8009 35.7654 43.5601ZM47.0367 43.5601H53.3038C53.4751 42.9329 53.5967 42.3408 53.6683 41.7839C53.74 41.2269 53.7758 40.6139 53.7758 39.9447C53.7758 39.2686 53.74 38.6677 53.6683 38.1422C53.5967 37.6164 53.4751 37.0397 53.3038 36.4122H47.0646C47.1368 37.25 47.1886 37.9255 47.22 38.4389C47.2514 38.9519 47.2671 39.4539 47.2671 39.9447C47.2671 40.5397 47.2468 41.1058 47.2063 41.643C47.1657 42.1805 47.1092 42.8196 47.0367 43.5601ZM46.5367 33.6543H52.2892C51.4206 31.9268 50.2553 30.4686 48.7933 29.2797C47.3314 28.0908 45.6533 27.2404 43.7592 26.7284C44.3975 27.7104 44.939 28.7622 45.3838 29.8839C45.8285 31.0055 46.2128 32.2623 46.5367 33.6543ZM36.3208 33.6543H43.7313C43.4232 32.2787 42.9404 30.9532 42.2829 29.6776C41.6254 28.4021 40.86 27.2525 39.9867 26.2289C39.1756 27.0533 38.4811 28.0501 37.9033 29.2193C37.3256 30.3884 36.7981 31.8668 36.3208 33.6543ZM27.7008 33.6543H33.4875C33.7747 32.3179 34.1326 31.0936 34.5613 29.9814C34.9901 28.8689 35.5331 27.7939 36.19 26.7564C34.2914 27.2683 32.6272 28.1083 31.1975 29.2764C29.7675 30.4447 28.6019 31.904 27.7008 33.6543Z" fill="#051912"/>
</g>
</svg>
