<svg width="81" height="80" viewBox="0 0 81 80" fill="none" xmlns="http://www.w3.org/2000/svg">
<rect x="0.5" width="80" height="80" rx="40" fill="#D4F100"/>
<mask id="mask0_14_250" style="mask-type:alpha" maskUnits="userSpaceOnUse" x="20" y="20" width="41" height="40">
<rect x="20.5" y="20" width="40" height="40" fill="#D9D9D9"/>
</mask>
<g mask="url(#mask0_14_250)">
<path d="M55.483 57.2679L50.4779 52.2629V56.0846H47.3217V46.845H56.5613V50.0012H52.698L57.6934 55.0062L55.483 57.2679ZM40.5025 56.9458C38.1586 56.9458 35.9557 56.5019 33.8938 55.6142C31.8321 54.7267 30.0371 53.5198 28.5088 51.9937C26.9802 50.4676 25.7723 48.6791 24.885 46.6283C23.9978 44.5775 23.5542 42.3862 23.5542 40.0546C23.5542 37.6985 23.9978 35.4871 24.885 33.4204C25.7723 31.3535 26.9799 29.5537 28.5079 28.0212C30.0363 26.4887 31.8311 25.2767 33.8925 24.385C35.9536 23.4933 38.1561 23.0475 40.5 23.0475C42.8436 23.0475 45.0459 23.4933 47.1067 24.385C49.1675 25.2767 50.9624 26.4887 52.4913 28.0212C54.0205 29.5537 55.2296 31.3536 56.1188 33.4208C57.0079 35.488 57.4525 37.7 57.4525 40.0567C57.4525 40.6472 57.4242 41.2264 57.3675 41.7942C57.3109 42.3619 57.2232 42.9344 57.1046 43.5117H53.8271C53.9768 42.9405 54.0891 42.3696 54.1638 41.7987C54.2385 41.2279 54.2759 40.6482 54.2759 40.0596C54.2759 39.451 54.237 38.8457 54.1592 38.2437C54.0814 37.6421 53.9646 37.0408 53.8088 36.44H47.5367C47.595 37.0511 47.6479 37.6548 47.6954 38.2512C47.7432 38.8473 47.7671 39.4442 47.7671 40.0417C47.7671 40.6267 47.7499 41.2069 47.7155 41.7825C47.6813 42.358 47.6321 42.9344 47.568 43.5117H44.7625C44.8359 42.9344 44.892 42.358 44.9309 41.7825C44.9698 41.2069 44.9892 40.6312 44.9892 40.0554C44.9892 39.4535 44.9716 38.8504 44.9363 38.2462C44.9013 37.6418 44.8425 37.0397 44.76 36.44H36.2775C36.1861 37.0444 36.1196 37.6465 36.0779 38.2462C36.0363 38.8457 36.0154 39.4442 36.0154 40.0417C36.0154 40.6392 36.0361 41.2323 36.0775 41.8212C36.1189 42.4101 36.1811 42.999 36.2642 43.5879H43.775V46.3458H36.8209C37.187 47.7122 37.6382 49.0473 38.1746 50.3512C38.711 51.6554 39.4817 52.7954 40.4867 53.7712C41.0717 53.7712 41.6542 53.7367 42.2342 53.6675C42.8139 53.5983 43.3986 53.509 43.9884 53.3996V56.5825C43.397 56.6922 42.8156 56.7803 42.2442 56.8467C41.6725 56.9128 41.092 56.9458 40.5025 56.9458ZM27.1729 43.5879H33.46C33.3859 42.999 33.3303 42.4101 33.2934 41.8212C33.2561 41.2323 33.2375 40.6437 33.2375 40.0554C33.2375 39.4535 33.2527 38.8504 33.2829 38.2462C33.3132 37.6418 33.3629 37.0397 33.4321 36.44H27.1759C27.0209 37.0419 26.9046 37.6437 26.8271 38.2454C26.7496 38.8473 26.7109 39.4526 26.7109 40.0612C26.7109 40.664 26.7493 41.2568 26.8263 41.8396C26.9032 42.4223 27.0188 43.0051 27.1729 43.5879ZM28.2009 33.6854H33.9525C34.24 32.4607 34.6039 31.2648 35.0442 30.0979C35.4845 28.931 36.0424 27.8078 36.7179 26.7283C34.9004 27.333 33.255 28.2217 31.7817 29.3942C30.3084 30.5669 29.1148 31.9973 28.2009 33.6854ZM36.69 53.2437C36.0331 52.1851 35.4856 51.0765 35.0475 49.9179C34.6095 48.759 34.2573 47.5683 33.9909 46.3458H28.2009C29.0717 48.0478 30.2418 49.4996 31.7113 50.7012C33.1807 51.9029 34.8403 52.7504 36.69 53.2437ZM36.8209 33.6854H44.2034C43.8517 32.2982 43.3766 30.9632 42.778 29.6804C42.1793 28.3976 41.4156 27.2285 40.4867 26.1729C39.5586 27.2432 38.7974 28.4178 38.2029 29.6967C37.6082 30.9753 37.1475 32.3048 36.8209 33.6854ZM47.0696 33.6854H52.7892C51.8814 32.0043 50.6907 30.571 49.2171 29.3854C47.7432 28.2001 46.0998 27.3237 44.2867 26.7562C44.9623 27.8171 45.5213 28.9321 45.9638 30.1012C46.4063 31.2701 46.7749 32.4648 47.0696 33.6854Z" fill="#1C1B1F"/>
</g>
</svg>
